<?xml version="1.0" standalone="no"?>
<!DOCTYPE svg PUBLIC "-//W3C//DTD SVG 1.1//EN" "http://www.w3.org/Graphics/SVG/1.1/DTD/svg11.dtd" >
<!--
2013-9-30: Created.
-->
<svg>
<metadata>
Created by iconfont
</metadata>
<defs>

<font id="iconfont" horiz-adv-x="1024" >
  <font-face
    font-family="iconfont"
    font-weight="500"
    font-stretch="normal"
    units-per-em="1024"
    ascent="896"
    descent="-128"
  />
    <missing-glyph />
    
    <glyph glyph-name="x" unicode="x" horiz-adv-x="1001"
d="M281 543q-27 -1 -53 -1h-83q-18 0 -36.5 -6t-32.5 -18.5t-23 -32t-9 -45.5v-76h912v41q0 16 -0.5 30t-0.5 18q0 13 -5 29t-17 29.5t-31.5 22.5t-49.5 9h-133v-97h-438v97zM955 310v-52q0 -23 0.5 -52t0.5 -58t-10.5 -47.5t-26 -30t-33 -16t-31.5 -4.5q-14 -1 -29.5 -0.5
t-29.5 0.5h-32l-45 128h-439l-44 -128h-29h-34q-20 0 -45 1q-25 0 -41 9.5t-25.5 23t-13.5 29.5t-4 30v167h911zM163 247q-12 0 -21 -8.5t-9 -21.5t9 -21.5t21 -8.5q13 0 22 8.5t9 21.5t-9 21.5t-22 8.5zM316 123q-8 -26 -14 -48q-5 -19 -10.5 -37t-7.5 -25t-3 -15t1 -14.5
t9.5 -10.5t21.5 -4h37h67h81h80h64h36q23 0 34 12t2 38q-5 13 -9.5 30.5t-9.5 34.5q-5 19 -11 39h-368zM336 498v228q0 11 2.5 23t10 21.5t20.5 15.5t34 6h188q31 0 51.5 -14.5t20.5 -52.5v-227h-327z" />
    

    
    <glyph glyph-name="gouwucheman" unicode="&#58880;" d="M346.112 89.088q19.456 0 36.864-7.168t30.208-19.968 20.48-30.208 7.68-36.864-7.68-36.864-20.48-30.208-30.208-20.48-36.864-7.68q-20.48 0-37.888 7.68t-30.208 20.48-20.48 30.208-7.68 36.864 7.68 36.864 20.48 30.208 30.208 19.968 37.888 7.168zM772.096 87.04q19.456 0 37.376-7.168t30.72-19.968 20.48-30.208 7.68-36.864-7.68-36.864-20.48-30.208-30.72-20.48-37.376-7.68-36.864 7.68-30.208 20.48-20.48 30.208-7.68 36.864 7.68 36.864 20.48 30.208 30.208 19.968 36.864 7.168zM944.128 668.672q28.672 0 44.544-7.68t22.528-18.944 6.144-24.064-3.584-22.016-13.312-37.888-22.016-62.976-23.552-68.096-18.944-53.248q-13.312-40.96-33.28-56.832t-49.664-15.872l-35.84 0-65.536 0-86.016 0-96.256 0-253.952 0 14.336-92.16 517.12 0q49.152 0 49.152-41.984 0-20.48-9.728-35.328t-38.4-14.848l-49.152 0-94.208 0-118.784 0-119.808 0-99.328 0-55.296 0q-20.48 0-34.304 9.216t-23.04 24.064-14.848 32.256-8.704 32.768q-1.024 6.144-5.632 29.696t-11.264 58.88-14.848 78.848-16.384 87.552q-19.456 103.424-44.032 230.4l-76.8 0q-15.36 0-25.6 7.68t-16.896 18.432-9.216 23.04-2.56 22.528q0 20.48 13.824 33.792t37.376 13.312l21.504 0 21.504 0 25.6 0 34.816 0q20.48 0 32.768-6.144t19.456-15.36 10.24-19.456 5.12-17.408q2.048-8.192 4.096-23.04t4.096-30.208q3.072-18.432 6.144-38.912l700.416 0zM867.328 701.44l-374.784 0 135.168 135.168q23.552 23.552 51.712 24.064t51.712-23.04z"  horiz-adv-x="1024" />

    
    <glyph glyph-name="quxiaoguanzhu" unicode="&#58881;" d="M571.81 91.1249c0 5.6633 0.4807 11.2222 0.8568 16.8229-37.282 3.9079-79.0152 6.3948-126.4536 6.3948-176.2743 0-279.5102-32.5172-334.3256-56.2155-49.0057-21.2114-83.5082-49.1938-83.5082-126.4953 0-36.9894 0-33.8965 0-80.8124H730.5926530612245C637.2624-109.3701 571.81-16.7713 571.81 91.1249zM444.1025 166.1068c0 0 164.6968-23.7819 223.2947 291.5474 29.487 158.6573-50.6358 291.5474-223.2947 291.5474-176.9639 0-259.0929-132.8901-228.8744-291.5474C275.3933 141.7816 444.1025 166.1068 444.1025 166.1068zM995.6415 179.7322 921.6627 253.711 833.0344 165.1037 744.4271 253.711 670.4483 179.7322 759.0557 91.1249 670.4483 2.5176 744.4271-71.4612 833.0344 17.1252 921.6627-71.4821 995.6415 2.5176 907.0341 91.1249Z"  horiz-adv-x="1024" />

    
    <glyph glyph-name="guanlianbangding1" unicode="&#59038;" d="M511.999488 748.207092c-247.553029 0-448.22648-200.686718-448.22648-448.208115 0-247.542886 200.673451-448.208115 448.22648-448.208115 247.553029 0 448.22648 200.666252 448.22648 448.208115C960.225968 547.520373 759.552517 748.207092 511.999488 748.207092zM487.289724 95.460534l-26.963176-26.065655c-24.469277-23.701818-56.641295-35.519981-88.791824-35.519981s-64.301056 11.818163-88.770333 35.497469c-23.812288 23.023366-36.899887 53.640688-36.899887 86.227874s13.088623 63.225997 36.878396 86.249363l99.144013 95.922676c61.631141 59.614749 132.389524 68.194148 180.297566 21.862937 12.912607-12.518105 12.999591-32.871665 0.174993-45.476751-12.847112-12.606109-33.704994-12.69309-46.661605-0.153496-28.166634 27.225061-66.795979-2.013867-87.346856-21.88545l-99.144013-95.922676c-11.205662-10.833743-17.377475-25.25622-17.377475-40.597627 0-15.319917 6.171813-29.741371 17.377475-40.574091 23.330291-22.585391 61.302646-22.563902 84.65545 0l26.941686 26.086122c12.912607 12.496615 33.813469 12.431124 46.639091-0.174985C500.268849 128.332199 500.203354 107.978638 487.289724 95.460534zM741.234586 341.165562l-105.753819-102.313224c-32.676529-31.624255-67.037489-47.601134-99.559493-47.601134-26.570211 0-51.913427 10.658757-74.106778 32.149211-12.93512 12.518105-13.022105 32.871665-0.174993 45.477774 12.847112 12.583596 33.704994 12.671601 46.639091 0.152473 9.67371-9.366322 32.369525-31.339776 80.71556 15.47239l105.797823 102.291734c11.205662 10.854209 17.377475 25.299199 17.377475 40.618093s-6.171813 29.742395-17.399988 40.597627c-21.076878 20.37505-53.358395 30.267351-78.023131 6.390547l-33.574005-32.499182c-12.912607-12.496615-33.791979-12.4301-46.639091 0.174985-12.847112 12.606109-12.760128 32.958646 0.174993 45.477774l33.574005 32.499182c47.602061 46.068222 119.519898 43.354414 170.952351-6.41306 23.789774-23.023366 36.899887-53.639664 36.899887-86.227874C778.133449 394.827739 765.024359 364.187905 741.234586 341.165562z"  horiz-adv-x="1024" />

    
    <glyph glyph-name="close" unicode="&#58883;" d="M826.641174 616.215942c-174.913732 174.908612-458.533642 174.908612-633.478074 0-174.947502-174.922938-174.947502-458.546577 0-633.452119 174.944432-174.954661 458.565366-174.954661 633.478074 0C1001.587653 157.669364 1001.587653 441.293003 826.641174 616.215942zM713.530505 141.1092c12.498151-12.514012 12.498151-32.759101 0-45.24139-12.498151-12.497639-32.776817-12.497639-45.243244 0L509.910835 254.231607l-158.363123-158.363797c-12.497127-12.497639-32.776817-12.497639-45.274968 0-12.498151 12.482289-12.498151 32.727379 0 45.24139l158.384613 158.371984L306.272744 457.853168c-12.498151 12.481266-12.498151 32.728402 0 45.24139 12.497127 12.483312 32.776817 12.483312 45.274968 0l158.363123-158.363797 158.37745 158.363797c12.466427 12.483312 32.745093 12.483312 45.243244 0 12.498151-12.512988 12.498151-32.760125 0-45.24139L555.160219 299.481184 713.530505 141.1092z"  horiz-adv-x="1024" />

    
    <glyph glyph-name="close1" unicode="&#58952;" d="M514.496 145.056c-125.104 0-226.496 101.408-226.496 226.496 0 125.104 101.392 226.512 226.496 226.512 125.088 0 226.496-101.408 226.496-226.512 0-125.088-101.392-226.496-226.496-226.496zM620.72 449.376c6.16 6.16 4.336 18-4.064 26.4l-0.96 0.944c-8.4 8.4-20.224 10.24-26.384 4.064l-75.344-75.36-80.816 80.832c-6.256 6.256-18.24 4.4-26.752-4.128l-0.96-0.96c-8.528-8.512-10.352-20.496-4.112-26.72l80.816-80.832-78.864-78.848c-6.176-6.192-4.352-17.984 4.064-26.4l0.944-0.944c8.4-8.4 20.224-10.256 26.384-4.064l78.88 78.88 76.32-76.336c6.256-6.24 18.224-4.416 26.736 4.112l0.976 0.976c8.528 8.496 10.368 20.48 4.112 26.736l-76.32 76.336 75.344 75.312z"  horiz-adv-x="1024" />

    
    <glyph glyph-name="gouxuan" unicode="&#58911;" d="M887.904 597.792c-12.864 12.064-33.152 11.488-45.216-1.408L415.936 142.016l-233.12 229.696C170.208 384.128 149.952 384 137.536 371.392c-12.416-12.576-12.256-32.864 0.352-45.248l256.48-252.672c0.096-0.096 0.224-0.128 0.32-0.224 0.096-0.096 0.128-0.224 0.224-0.32 2.016-1.92 4.448-3.008 6.784-4.288 1.152-0.672 2.144-1.664 3.36-2.144 3.776-1.472 7.776-2.24 11.744-2.24 4.192 0 8.384 0.832 12.288 2.496 1.312 0.544 2.336 1.664 3.552 2.368 2.4 1.408 4.896 2.592 6.944 4.672 0.096 0.096 0.128 0.256 0.224 0.352 0.064 0.096 0.192 0.128 0.288 0.224l449.184 478.208C901.44 565.408 900.768 585.664 887.904 597.792z"  horiz-adv-x="1024" />

    
    <glyph glyph-name="tanhao" unicode="&#58963;" d="M512.162706-61.74297c-246.741637 0-446.7673 200.021569-446.7673 446.7673 0 246.741637 200.024639 446.766276 446.7673 446.766276s446.766276-200.024639 446.766276-446.766276C958.927959 138.277576 758.904343-61.74297 512.162706-61.74297L512.162706-61.74297zM580.493977 602.701001c0 34.198893-35.107589 61.919235-69.338205 61.919235-34.232662 0-68.330248-27.720342-68.330248-61.919235l17.983583-258.218016c0-34.198893 15.731286-61.954027 49.89641-61.954027 34.232662 0 51.803853 27.754111 51.803853 61.954027L580.493977 602.701001 580.493977 602.701001zM513.237177 249.030006c-38.664601 0-69.942979-31.413454-69.942979-70.073962 0-38.662555 31.280424-69.974701 69.942979-69.974701 38.660508 0 70.076008 31.312146 70.076008 69.974701C583.313186 217.619622 551.897685 249.030006 513.237177 249.030006L513.237177 249.030006z"  horiz-adv-x="1024" />

    
    <glyph glyph-name="riliriqi" unicode="&#59399;" d="M480 256l64 0C561.92 256 576 270.08 576 288S561.92 320 544 320l-64 0C462.08 320 448 305.92 448 288S462.08 256 480 256zM480 128l64 0C561.92 128 576 142.08 576 160 576 177.92 561.92 192 544 192l-64 0C462.08 192 448 177.92 448 160 448 142.08 462.08 128 480 128zM832 704l-128 0L704 736C704 753.92 689.92 768 672 768 654.08 768 640 753.92 640 736L640 704 384 704 384 736C384 753.92 369.92 768 352 768S320 753.92 320 736L320 704 192 704C121.6 704 64 646.4 64 576l0-512c0-70.4 57.6-128 128-128l640 0c70.4 0 128 57.6 128 128L960 576C960 646.4 902.4 704 832 704zM896 64c0-35.2-28.8-64-64-64L192 0c-35.2 0-64 28.8-64 64L128 448l768 0L896 64zM896 512 128 512 128 576c0 35.2 28.8 64 64 64l128 0 0-32C320 590.08 334.08 576 352 576S384 590.08 384 608L384 640l256 0 0-32C640 590.08 654.08 576 672 576 689.92 576 704 590.08 704 608L704 640l128 0c35.2 0 64-28.8 64-64L896 512zM288 128l64 0C369.92 128 384 142.08 384 160 384 177.92 369.92 192 352 192l-64 0C270.08 192 256 177.92 256 160 256 142.08 270.08 128 288 128zM672 256l64 0c17.92 0 32 14.08 32 32S753.92 320 736 320l-64 0C654.08 320 640 305.92 640 288S654.08 256 672 256zM288 256l64 0C369.92 256 384 270.08 384 288S369.92 320 352 320l-64 0C270.08 320 256 305.92 256 288S270.08 256 288 256zM672 128l64 0c17.92 0 32 14.08 32 32 0 17.92-14.08 32-32 32l-64 0c-17.92 0-32-14.08-32-32C640 142.08 654.08 128 672 128z"  horiz-adv-x="1024" />

    
    <glyph glyph-name="yanzhengma" unicode="&#58913;" d="M512.3 18.2l-6.3 2.3c-120.4 43.8-218 131.1-274.8 245.9-56.6 114.2-67.3 244.2-30.1 366.1l4 13 13.6 0c103 0.2 200.6 34 282.2 97.8l11.4 8.9 11.3-8.9c81.3-63.8 179-97.6 282.4-97.8l13.6 0 4-13c37.2-121.8 26.5-251.8-30.1-366.1C736.6 151.7 639 64.3 518.6 20.5L512.3 18.2zM232.6 608.9C170 380.8 290.7 141.7 512.3 57.5 733.9 141.7 854.7 380.8 792 608.9c-51.5 1.5-102 10.9-150.3 28-46.4 16.4-89.9 39.5-129.5 68.8-39.7-29.3-83.2-52.4-129.4-68.8C334.5 619.8 284 610.4 232.6 608.9zM478.6 249.9c-4.7 0-9.4 1.8-13 5.4L361.5 359.4c-7.2 7.2-7.2 18.8 0 26 7.2 7.2 18.8 7.2 26 0l91.1-91.1 195.3 195.3c7.2 7.2 18.8 7.2 26 0 7.2-7.2 7.2-18.8 0-26L491.7 255.2C488.1 251.7 483.4 249.9 478.6 249.9z"  horiz-adv-x="1024" />

    
    <glyph glyph-name="more" unicode="&#58979;" d="M512-90.763636C249.483636-90.763636 37.236364 121.483636 37.236364 384S249.483636 858.763636 512 858.763636 986.763636 646.516364 986.763636 384 774.516364-90.763636 512-90.763636zM512 840.145455C260.654545 840.145455 55.854545 635.345455 55.854545 384S260.654545-72.145455 512-72.145455 968.145455 132.654545 968.145455 384 763.345455 840.145455 512 840.145455zM318.370909 384m-44.683636 0a2.4 2.4 0 1 0 89.367273 0 2.4 2.4 0 1 0-89.367273 0ZM512 384m-44.683636 0a2.4 2.4 0 1 0 89.367273 0 2.4 2.4 0 1 0-89.367273 0ZM705.629091 384m-44.683636 0a2.4 2.4 0 1 0 89.367273 0 2.4 2.4 0 1 0-89.367273 0Z"  horiz-adv-x="1024" />

    
    <glyph glyph-name="certificatezhengjian" unicode="&#59168;" d="M950.8864 749.6704c21.2992 0 38.8096-6.8608 52.5312-20.5824C1017.1392 715.4688 1024 697.9584 1024 676.5568l0-585.1136c0-21.4016-6.8608-38.8096-20.5824-52.5312C989.696 25.1904 972.1856 18.3296 950.8864 18.3296L73.1136 18.3296c-21.2992 0-38.8096 6.8608-52.5312 20.5824C6.8608 52.5312 0 70.0416 0 91.4432L0 676.5568c0 21.2992 6.8608 38.912 20.5824 52.5312 13.7216 13.7216 31.232 20.5824 52.5312 20.5824l365.6704 0 0 128C438.8864 889.856 444.928 896 457.1136 896l109.6704 0c12.1856 0 18.3296-6.144 18.3296-18.3296l0-128L950.8864 749.6704zM987.4432 676.5568c0 24.3712-12.1856 36.5568-36.5568 36.5568L585.1136 713.1136l0-54.8864c0-12.288-6.144-18.3296-18.3296-18.3296L457.1136 639.8976c-12.1856 0-18.3296 6.0416-18.3296 18.3296L438.784 713.1136 73.1136 713.1136c-24.3712 0-36.5568-12.288-36.5568-36.5568l0-585.1136c0-24.3712 12.1856-36.5568 36.5568-36.5568l877.6704 0c24.3712 0 36.5568 12.1856 36.5568 36.5568L987.3408 676.5568zM438.8864 219.4432c0 35.0208-12.5952 65.1264-37.6832 90.3168S345.9072 347.4432 310.8864 347.4432 245.76 334.848 220.5696 309.76 182.8864 254.464 182.8864 219.4432c0-12.288-6.144-18.3296-18.3296-18.3296S146.3296 207.1552 146.3296 219.4432c0 45.6704 15.9744 84.5824 48.0256 116.5312C226.304 368.0256 265.1136 384 310.8864 384c45.6704 0 84.5824-15.9744 116.5312-48.0256 31.9488-31.9488 48.0256-70.8608 48.0256-116.5312 0-12.288-6.144-18.3296-18.3296-18.3296S438.8864 207.1552 438.8864 219.4432zM374.8864 411.4432C356.5568 393.1136 335.2576 384 310.8864 384S265.1136 393.1136 246.8864 411.4432 219.4432 451.072 219.4432 475.4432c0 24.3712 9.1136 45.6704 27.4432 64s39.6288 27.4432 64 27.4432 45.6704-9.1136 64-27.4432S402.3296 499.712 402.3296 475.4432C402.3296 451.072 393.1136 429.6704 374.8864 411.4432zM349.696 514.2528C339.0464 524.9024 326.144 530.3296 310.8864 530.3296c-15.2576 0-28.16-5.4272-38.8096-15.9744C261.3248 503.6032 256 490.5984 256 475.4432c0-15.2576 5.3248-28.2624 15.9744-38.8096C282.624 425.8816 295.6288 420.5568 310.8864 420.5568c15.2576 0 28.16 5.3248 38.8096 15.9744 10.6496 10.6496 15.9744 23.6544 15.9744 38.8096C365.6704 490.5984 360.3456 503.6032 349.696 514.2528zM475.4432 676.5568l73.1136 0L548.5568 859.4432 475.4432 859.4432 475.4432 676.5568zM859.4432 530.3296l-256 0c-12.1856 0-18.3296 6.0416-18.3296 18.3296 0 12.1856 6.144 18.3296 18.3296 18.3296l256 0c12.1856 0 18.3296-6.144 18.3296-18.3296C877.6704 536.3712 871.6288 530.3296 859.4432 530.3296zM859.4432 420.5568l-256 0c-12.1856 0-18.3296 6.0416-18.3296 18.3296 0 12.1856 6.144 18.3296 18.3296 18.3296l256 0c12.1856 0 18.3296-6.144 18.3296-18.3296C877.6704 426.5984 871.6288 420.5568 859.4432 420.5568zM859.4432 310.8864l-256 0c-12.1856 0-18.3296 6.0416-18.3296 18.3296 0 12.1856 6.144 18.3296 18.3296 18.3296l256 0c12.1856 0 18.3296-6.144 18.3296-18.3296C877.6704 316.928 871.6288 310.8864 859.4432 310.8864zM859.4432 201.1136l-256 0c-12.1856 0-18.3296 6.0416-18.3296 18.3296 0 12.1856 6.144 18.3296 18.3296 18.3296l256 0c12.1856 0 18.3296-6.144 18.3296-18.3296C877.6704 207.1552 871.6288 201.1136 859.4432 201.1136z"  horiz-adv-x="1024" />

    
    <glyph glyph-name="chengyuan" unicode="&#58924;" d="M599.388 764.763c-119.805 0-217.229-97.427-217.229-217.109 0-82.707 46.585-154.835 114.82-191.442-142.185-43.79-245.692-176.365-245.692-332.779 0-11.435 9.242-20.68 20.797-20.68 11.435 0 20.677 9.245 20.677 20.68 0 169.065 137.562 306.629 305.167 306.749 2.19-0.245 4.38-0.12 6.45 0.365 117.49 2.675 212.239 99.005 212.239 217.107C816.618 667.336 719.193 764.763 599.388 764.763L599.388 764.763 599.388 764.763zM599.388 371.901c-96.815 0-175.755 78.815-175.755 175.752 0 96.94 78.817 175.755 175.755 175.755 96.94 0 175.755-78.815 175.755-175.755C775.143 450.716 696.328 371.901 599.388 371.901L599.388 371.901 599.388 371.901zM643.783 365.331c-8.025 8.15-45.49 9.365-53.635 1.215-8.15-8.025-8.15-22.38 0-30.525 1.09-1.1-13.38-4.02 25.05-4.99 30.65-0.73 88.79-18.975 123.7-34.91 53.395-24.32 89.4-68.72 91.345-70.91 49.015-55.95 75.775-126.86 75.775-201.78 0-11.435 9.24-20.68 20.675-20.68 11.435 0 20.675 9.245 20.675 20.68 0 87.21-31.86 169.67-90.245 233.769-1.705 1.95-46.705 49.26-100.835 73.59-62.39 28.09-111.895 32.47-113.965 34.54L643.783 365.33 643.783 365.331 643.783 365.331zM380.092 366.546C380.092 366.671 379.969 366.671 380.092 366.546c0 0.125 0 0.125 0 0.125 0 11.43-9.242 20.675-20.797 20.675-75.29 0-136.47 65.437-136.47 145.712 0 80.397 61.18 145.712 136.47 145.712 11.432 0 20.797 9.242 20.797 20.677 0 11.432-9.242 20.797-20.797 20.797-98.155 0-177.945-84.045-177.945-187.187 0-68.72 35.395-128.807 87.937-161.402-111.897-39.53-192.66-151.305-192.66-282.544 0-11.435 9.242-20.68 20.677-20.68 11.432 0 20.675 9.245 20.675 20.68 0 141.575 108.25 256.759 241.192 256.759C370.727 345.871 380.092 355.111 380.092 366.546L380.092 366.546 380.092 366.546z"  horiz-adv-x="1024" />

    
    <glyph glyph-name="qian" unicode="&#58882;" d="M711.074499 637.531274c-18.10024 0-35.742039 1.130753-52.422953 3.361561-54.709019 7.535627-87.346347 25.176402-87.346347 47.188742 0 33.18582 70.312392 50.54928 139.7693 50.54928 69.413929 0 139.685389-17.364483 139.685389-50.54928 0-22.00006-32.576953-39.639812-87.141686-47.183626C746.900449 638.662027 729.232045 637.531274 711.074499 637.531274zM711.074499 721.781096c-75.03495 0-122.919541-19.960611-122.919541-33.700543 0-8.498558 22.576181-23.580045 72.760141-30.490431 31.886221-4.26207 68.592214-4.248767 100.43648 0.00307 50.03558 6.919597 72.557526 21.992897 72.557526 30.487362C833.909106 701.820486 786.058284 721.781096 711.074499 721.781096zM711.074499 327.326233c-31.276331 0-61.73197 3.541663-85.756129 9.976212l-6.245238 1.670036 0 95.019097 10.650571-2.920516c8.979512-2.460028 19.358907-4.513804 30.856775-6.096858 31.601742-4.368494 69.38323-4.368494 100.983949 0 49.900503 6.91141 72.343655 21.942755 72.343655 30.408567l16.850783 0 0-77.507258C850.759889 344.690716 780.488429 327.326233 711.074499 327.326233zM635.922892 352.012472c21.592784-5.072529 47.983851-7.836479 75.150584-7.836479 74.983785 0 122.834606 19.960611 122.834606 33.700543l0 52.265364c-14.784728-9.885138-38.795585-17.532305-70.035076-21.86089-33.124422-4.574179-72.479755-4.574179-105.594967 0-7.952112 1.099031-15.431457 2.415003-22.355147 3.928472L635.922892 352.012472zM711.074499 404.833491c-18.476817 0-36.238342 1.160429-52.79646 3.447519-12.218276 1.686409-23.325241 3.88754-33.005718 6.540973l-6.199189 1.698688 0 94.863555 10.567683-2.777253c9.079796-2.38942 19.355837-4.425799 30.555923-6.054903l0.683569-0.061398c31.952736-4.270257 68.625984-4.253884 100.470249 0l0.699941 0.073678c49.558719 6.968715 71.858608 21.955034 71.858608 30.41266l16.850783 0 0-77.593216c0-21.959128-32.481785-39.566134-86.885859-47.102784C747.310795 405.99392 729.54927 404.833491 711.074499 404.833491zM635.922892 429.491077c7.453762-1.769296 15.717983-3.282766 24.658609-4.516874 31.601742-4.368494 69.38323-4.368494 100.983949 0 49.900503 6.91141 72.343655 21.942755 72.343655 30.408567l0 52.326762c-14.795984-9.909697-38.83754-17.577331-70.117964-21.917172l-0.769526-0.078795c-32.980135-4.352121-70.722738-4.368494-103.809297 0l-0.900509 0.085958c-7.899924 1.139963-15.390525 2.472308-22.387893 3.985778L635.923916 429.491077zM711.074499 482.426707c-17.899672 0-35.346019 1.106194-51.863205 3.28686l-0.900509 0.085958c-12.033058 1.731434-23.119557 3.924379-32.955576 6.508227l-6.282077 1.653663 0 44.912909c0 4.015454-4.800329 8.972349-13.176091 13.604856-7.239891 4.080945-16.750499 7.696286-28.333302 10.773368l-6.259564 1.662873 0 45.571918 16.84976 0c0-6.655584 12.83533-16.776082 41.503253-24.37413 9.206686-2.447748 19.61064-4.479011 30.92022-6.034437 31.609928-4.368494 69.387323-4.368494 100.988042 0 49.900503 6.910387 72.343655 21.942755 72.343655 30.40959l16.850783 0 0-77.511351c0-21.98778-32.510438-39.627533-86.968747-47.184649l-0.769526-0.078795C746.505453 483.532901 729.02943 482.426707 711.074499 482.426707zM660.197762 502.551046l0.683569-0.061398c31.952736-4.270257 68.625984-4.253884 100.470249 0l0.699941 0.073678c49.558719 6.968715 71.858608 21.955034 71.858608 30.41266l0 52.269457c-14.784728-9.886161-38.795585-17.533328-70.035076-21.86089-33.124422-4.575202-72.479755-4.575202-105.594967 0-11.992125 1.64957-23.075555 3.816932-32.942273 6.441713-15.768125 4.179183-28.224832 9.292644-37.180807 15.208377l0-7.269567c10.222829-3.065825 18.936281-6.615675 25.957185-10.576893 18.018376-9.958816 21.810748-20.897959 21.810748-28.314883l0-31.823799C643.373585 505.323183 651.506822 503.817899 660.197762 502.551046zM711.074499 559.938058c-18.476817 0-36.238342 1.160429-52.79646 3.447519-11.992125 1.64957-23.075555 3.816932-32.942273 6.441713-35.346019 9.367345-54.030567 23.427572-54.030567 40.660048l0 77.593216 16.84976 0c0-8.498558 22.576181-23.580045 72.760141-30.490431 31.886221-4.26207 68.592214-4.248767 100.43648 0.00307 50.03558 6.919597 72.557526 21.992897 72.557526 30.487362l16.850783 0 0-77.593216c0-21.959128-32.481785-39.567157-86.885859-47.102784C747.310795 561.097464 729.54927 559.938058 711.074499 559.938058zM588.154959 662.838659l0-52.351322c0-6.655584 12.83533-16.776082 41.503253-24.37413 9.206686-2.447748 19.61064-4.479011 30.92022-6.034437 31.609928-4.368494 69.387323-4.368494 100.988042 0 49.900503 6.910387 72.343655 21.942755 72.343655 30.40959L833.910129 662.82638c-14.821567-9.921977-38.918381-17.593703-70.290903-21.929452-33.386388-4.459568-71.553663-4.463662-104.965633-0.004093C627.178741 645.22756 603.005178 652.908496 588.154959 662.838659zM496.237503 488.326067c-18.47477 0-36.238342 1.160429-52.795437 3.447519-54.461379 7.528464-86.97284 25.13854-86.97284 47.101761 0 33.18582 70.312392 50.550303 139.768277 50.550303 31.074739 0 61.493539-3.508917 85.643566-9.885138 12.975523-3.447519 23.814382-7.602142 32.231075-12.349259 18.018376-9.958816 21.810748-20.897959 21.810748-28.314883 0-9.621125-6.169513-23.456225-35.567054-34.740222-6.40999-2.406816-12.435217-4.335748-18.48398-5.92699-9.910721-2.63399-20.966521-4.801353-32.844036-6.434549C532.475845 489.485473 514.71125 488.326067 496.237503 488.326067zM496.237503 572.574866c-75.033927 0-122.918517-19.959587-122.918517-33.700543 0-8.468882 22.469758-23.50125 72.426543-30.408567 31.601742-4.369517 69.382207-4.369517 100.984972 0 11.197016 1.539053 21.571295 3.570315 30.835286 6.031367 5.508457 1.447978 11.001565 3.209088 16.810874 5.38873 18.21485 6.993275 24.698518 14.603603 24.698518 18.98847 0 4.015454-4.800329 8.972349-13.176091 13.604856-7.239891 4.080945-16.750499 7.696286-28.333302 10.773368C554.792107 569.263447 525.90622 572.574866 496.237503 572.574866zM496.237503 410.814716c-18.10024 0-35.739992 1.130753-52.42193 3.360538-54.707996 7.53665-87.346347 25.176402-87.346347 47.188742l0 77.510328 16.84976 0c0-8.468882 22.469758-23.50125 72.426543-30.408567 31.601742-4.369517 69.382207-4.369517 100.984972 0 11.197016 1.539053 21.571295 3.570315 30.835286 6.031367 5.508457 1.447978 11.001565 3.209088 16.810874 5.38873 18.21485 6.993275 24.698518 14.603603 24.698518 18.98847l16.84976 0 0-77.510328c0-9.581216-6.196119-23.39892-35.715433-34.814923-5.564739-2.122337-11.710716-4.085038-18.305925-5.845125-9.79918-2.575662-20.918425-4.767584-33.070186-6.516414C532.063453 411.945469 514.395048 410.814716 496.237503 410.814716zM373.317962 513.641639l0-52.27662c0-8.499581 22.576181-23.580045 72.760141-30.491455 31.886221-4.26207 68.593238-4.248767 100.43648 0.004093 11.43647 1.644453 21.919219 3.710508 31.071669 6.117324 6.001691 1.600451 11.593036 3.382027 16.578584 5.2864 18.355043 7.095605 24.908296 14.513552 24.908296 19.083637L619.073132 513.464607c-4.834098-3.203972-10.966773-6.355755-18.717294-9.330506-6.40999-2.406816-12.435217-4.335748-18.48398-5.92699-9.910721-2.63399-20.966521-4.801353-32.844036-6.434549-33.108049-4.574179-72.472592-4.574179-105.587803 0C412.156526 496.100124 388.115993 503.747291 373.317962 513.641639zM496.237503 333.2215c-18.47477 0-36.238342 1.159406-52.795437 3.446495-54.461379 7.528464-86.97284 25.139563-86.97284 47.102784l0 77.593216 16.84976 0c0-8.499581 22.576181-23.580045 72.760141-30.491455 31.886221-4.26207 68.593238-4.248767 100.43648 0.004093 11.43647 1.644453 21.919219 3.710508 31.071669 6.117324 6.001691 1.600451 11.593036 3.382027 16.578584 5.2864 18.355043 7.095605 24.908296 14.513552 24.908296 19.083637l16.84976 0 0-77.593216c0-9.622148-6.169513-23.457248-35.567054-34.740222l-1.547239-0.559748c-13.580297-5.101181-30.309306-9.066493-49.756217-11.797697C532.475845 334.380906 514.71125 333.2215 496.237503 333.2215zM373.317962 436.122101l0-52.351322c0-8.469905 22.469758-23.502273 72.426543-30.408567 31.601742-4.370541 69.382207-4.370541 100.984972 0 18.59859 2.611477 35.020608 6.548136 47.476291 11.386328l1.543146 0.572028c17.178241 6.854105 23.325241 14.179954 23.325241 18.450211l0 52.231595c-4.866844-3.237741-11.045567-6.430456-18.866696-9.453303-5.564739-2.122337-11.710716-4.085038-18.305925-5.845125-9.79918-2.575662-20.918425-4.767584-33.070186-6.516414-33.490765-4.471848-71.603805-4.475941-105.015775-0.01228C412.341744 418.511002 388.169205 426.190915 373.317962 436.122101zM496.237503 255.710149c-69.455885 0-139.768277 17.368576-139.768277 50.54928L356.469226 383.770779l16.84976 0c0-8.469905 22.469758-23.502273 72.426543-30.408567 31.601742-4.370541 69.382207-4.370541 100.984972 0 18.59859 2.611477 35.020608 6.548136 47.476291 11.386328l1.543146 0.572028c17.178241 6.854105 23.325241 14.179954 23.325241 18.450211l16.84976 0 0-77.511351C635.922892 273.077701 565.652456 255.710149 496.237503 255.710149zM373.317962 358.537072l0-52.277644c0-13.739932 47.88459-33.69952 122.918517-33.69952 74.985832 0 122.836653 19.959587 122.836653 33.69952l0 52.100612c-4.834098-3.204995-10.966773-6.355755-18.717294-9.329483l-1.547239-0.559748c-13.580297-5.101181-30.309306-9.066493-49.756217-11.797697-33.156144-4.583388-72.496128-4.579295-105.612363-0.005117C412.156526 340.995557 388.115993 348.643748 373.317962 358.537072z"  horiz-adv-x="1024" />

    
    <glyph glyph-name="yaoqing" unicode="&#58965;" d="M798.341632 211.602131C797.242771 211.802572 796.442437 211.902079 796.442437 211.902079 787.846304 213.801275 780.749911 219.29842 776.452555 226.595254 776.351627 226.895202 772.753674 233.892088 767.556476 244.286486 751.264054 276.970837 717.779366 343.839281 717.779366 343.839281 713.68103 352.9358 704.385493 359.332789 693.691147 359.332789 682.895871 359.332789 673.600334 352.9358 669.501995 343.839281 669.501995 343.839281 664.805184 334.644675 658.307263 321.550748 641.609699 288.2665 612.030019 229.394294 611.929088 229.193853 607.931683 220.498213 600.034953 214.001713 590.339962 212.001589 589.939083 211.902079 455.103335 192.71111 455.103335 192.71111 443.509145 189.912074 434.913014 179.716693 434.913014 167.4231 434.913014 160.426214 437.712051 154.029224 442.309355 149.431923 442.309355 149.431923 537.864742 57.573994 538.16469 57.275466 543.461398 51.7769 546.760823 44.481487 546.760823 36.284812 546.760823 34.485127 546.460875 32.686862 546.260437 30.986684 546.160927 30.686736 535.864619-28.485419 529.262925-66.067022 526.264868-83.458306 523.970481-96.252285 523.970481-96.252285 523.970481-96.252285 523.465832-99.851656 523.465832-101.550414 523.465832-115.94364 535.266143-127.537827 549.852701-127.537827 553.351144-127.537827 556.755766-126.838424 559.849064-125.539125 559.849064-125.539125 648.906533-79.260457 674.800126-66.067022 678.992286-63.96881 681.596571-62.568579 681.890833-62.469069 685.389276-61.068842 689.29286-60.269929 693.385513-60.269929 697.384342-60.269929 701.081802-61.068842 704.580245-62.369562 704.880193-62.469069 707.679229-63.867879 711.877078-66.067022 737.969689-79.460898 826.029224-125.439615 826.728631-125.638632 829.821929-126.937931 833.225127-127.638758 836.82308-127.638758 851.416745-127.638758 863.31088-116.043147 863.31088-101.649921 863.31088-101.150955 860.706595-85.957395 857.313349-66.067022 850.516901-26.586223 840.321523 31.886528 840.222013 32.786369 840.122503 33.88523 839.922065 34.985513 839.922065 36.084374 839.922065 44.080611 843.12056 51.377442 848.31776 56.77508 848.518198 56.975521 859.113034 67.169478 873.007296 80.563354 901.39287 107.85149 943.972657 148.731096 943.972657 148.731096 948.970837 153.729276 951.968894 160.126266 951.968894 167.323593 951.968894 179.817624 943.074234 190.212022 931.178678 192.71111 931.478626 192.510672 814.433617 209.203971 798.341632 211.602131L798.341632 211.602131ZM411.12332 119.046222C398.229831 132.039219 391.133438 149.231482 391.133438 167.4231 391.133438 199.507558 413.222954 227.19515 445.007464 234.691001 446.306763 234.990949 447.706994 235.290894 449.006293 235.491335 483.49033 240.388585 529.268612 246.986015 557.655607 250.983424L605.033133 344.939563C610.430772 347.83811 615.427531 351.436062 620.624732 354.634557 662.405602 380.323444 697.388607 415.906345 721.877705 458.885587 746.265871 501.665809 760.659098 550.942531 760.659098 603.717696 760.559591 764.741298 630.820112 895.680569 471.395757 895.680569 311.969981 895.680569 182.231923 764.741298 182.231923 603.717696 182.231923 550.942531 196.62515 501.665809 221.013316 458.885587 248.50047 410.508707 288.982042 370.627031 338.058325 344.840056 335.259286 344.24016 332.46167 344.139229 329.76214 343.439825 311.270575 338.743011 293.879294 331.345249 277.187414 322.250151 260.694554 313.155052 245.701431 302.059831 231.409135 290.064765 209.518636 274.972135 188.529403 258.379764 169.338434 238.989778 95.97207 164.924008 52.992831 68.869656 45.495559-34.282512 45.396049-35.281863 45.396049-36.281218 45.396049-37.380076 46.095452-53.37255 59.189379-66.166529 75.581312-66.166529L485.089577-66.166529C495.783923-4.695725 500.281717 20.892234 502.180913 31.687508 481.790155 51.277935 412.023162 118.345395 412.023162 118.345395 411.623706 118.545833 411.423268 118.746274 411.12332 119.046222L411.12332 119.046222Z"  horiz-adv-x="1024" />

    
    <glyph glyph-name="fuwu" unicode="&#58887;" d="M888.025119 328.809003M998.60768 634.921843c-16.45374 40.219004-40.761356 76.252685-72.266907 107.117646C865.585037 801.494603 784.863574 834.237331 699.045023 834.237331c-67.750033 0-133.35624-20.700461-188.240245-58.882062-55.047734 39.268352-120.939443 60.565401-189.012841 60.565401-85.934185 0-166.725232-33.456996-227.495294-94.213755-30.783097-30.78412-54.579059-66.744123-70.727855-106.881263-15.578814-38.718837-23.366174-79.555917-23.147186-121.374348 0.216941-41.293475 8.238638-81.427544 23.840988-119.289873 16.169261-39.234583 39.781028-74.244958 70.184479-104.062054 31.880081-31.872918 316.898487-314.696332 322.238099-319.993988 24.555256-24.520463 57.462736-38.025035 92.669586-38.025035 35.211966 0 68.128657 13.507642 92.694145 38.037315 13.521968 13.424754 306.5897 304.401872 321.896314 319.653227 31.426757 29.655414 55.902194 64.510246 72.755024 103.609753 16.331967 37.892005 24.831548 78.118172 25.261337 119.563096C1022.397502 554.936137 1014.539534 595.974809 998.60768 634.921843zM863.890442 352.693993l-1.044796-1.016143c-4.457522-4.470825-212.666564-211.205283-322.137815-319.893704l-0.102331-0.101307c-8.143471-8.139378-19.24225-12.622482-31.250748-12.622482-12.004405 0-23.096021 4.480035-31.229259 12.613272l-0.119727 0.118704c-2.907213 2.8847-291.066145 288.822035-322.203306 319.961242l-0.324388 0.320295c-43.575448 42.672892-67.753103 100.145861-68.076468 161.832805-0.329505 62.796208 23.962761 121.855302 68.397786 166.292374 44.337811 44.327578 103.288434 68.739571 165.992545 68.739571 58.891272 0 115.584482-21.783119 159.634744-61.33595l28.727275-25.795503 29.016871 25.468045c44.068681 38.678928 100.846826 59.98007 159.874197 59.98007 62.939471 0 122.05587-23.931039 166.4428-67.367317 45.465494-44.541449 70.146617-103.509469 69.496817-166.042687C934.347121 452.411089 909.098064 395.17962 863.890442 352.693993zM320.581366 677.049313c-39.73805 0-77.392648-15.771195-106.028848-44.406372-28.636201-28.636201-44.406372-66.291822-44.406372-106.028848 0-16.887622 12.736069-29.623691 29.625738-29.623691s29.624714 12.735046 29.624714 29.623691c0 23.458271 9.292644 45.669132 26.164916 62.541405 16.872273 16.870226 39.081087 26.161846 62.538335 26.161846 15.719007 0 27.841092 11.034311 29.444613 26.182312 2.877537 7.77815 2.232854 15.83771-1.90335 22.545482C340.620771 672.187585 331.252403 677.049313 320.581366 677.049313z"  horiz-adv-x="1038" />

    
    <glyph glyph-name="jiantou" unicode="&#58967;" d="M439.62624 896 388.4608 844.83584 388.4608 844.83584 848.94976 384.35712 388.4608-76.13568 439.62624-127.30112 951.28064 384.35712Z"  horiz-adv-x="1024" />

    
    <glyph glyph-name="jijin" unicode="&#58994;" d="M697.33073 628.169301c5.838985 11.157107 8.631588 18.390731 8.631588 22.191546-1.903989 14.835254-10.535641 23.04978-25.767937 24.888853-15.359186 0-26.783505-6.497994-34.399653-19.37157L513.781064 464.736685 381.767658 656.000672c-7.616148 12.873576-19.16742 19.371698-34.399653 19.371698-15.359314-1.839073-23.864012-10.176268-25.768065-24.888981 1.903989-7.478833 4.696656-14.83519 8.631652-22.191546 1.903989-1.839009 2.919493-3.678082 2.919493-5.517155l117.669788-174.589788L381.894484 448.184899c-21.07141 0-31.60705-8.337195-31.60705-24.888853 1.903989-12.996181 12.439694-20.352473 31.60705-22.191546l100.406484 0 0-49.777707L381.894484 351.326792c-21.07141 0-31.60705-8.337067-31.60705-24.888725 1.903989-12.873576 12.439694-20.352537 31.60705-22.191546l100.406484 0 0-110.835126c0-18.390795 10.408815-27.708765 31.606923-27.708765 20.94452 0 31.480224 9.31797 31.480224 27.708765L545.388115 304.001375l100.406484 0c19.040467 1.839073 29.576043 9.31797 31.60705 22.191546 0 16.674263-10.535641 24.888789-31.60705 24.888789L545.388179 351.081711 545.388179 400.859353l100.406484 0c19.040467 1.839073 29.576043 9.195429 31.60705 22.191546 0 16.674391-10.535641 24.888981-31.60705 24.888981L576.995293 447.939881l117.669788 174.589596C694.538127 624.491155 695.426613 626.330356 697.33073 628.169301zM908.171588 282.300248l-74.257621-7.724107c-7.870056-0.735629-14.724673-5.639888-17.897945-12.628302-3.173464-6.865873-2.284979-15.080463 2.284851-21.210707l7.362304-9.685785L500.199041-3.124665l-87.459039 105.072633c-8.885496 10.666752-25.13336 12.751035-36.557614 4.536444-36.684504-26.360112-91.140063-65.10338-100.025623-70.620535-11.424254-5.762493-17.009396-18.758674-12.82062-30.896492 4.696656-13.4866 19.675108-20.597747 33.638121-16.183907 4.569702 1.471322 7.743038 2.574766 90.378403 61.79292l87.459039-105.072569c5.204343-6.252913 12.94751-9.56318 20.690548-9.56318 5.458315 0 11.04352 1.593863 15.867066 5.149405l345.773821 248.643324 5.331297-7.111211c4.188904-5.517283 10.916567-8.704946 17.898073-8.704946 0.761532 0 1.523191 0 2.284851 0.122733 7.870056 0.858234 14.724609 5.63976 18.024899 12.628174l30.210749 66.084219c3.04651 6.988478 2.284851 15.080336-2.411741 21.333312C923.784682 279.848215 916.04158 283.158483 908.171588 282.300248zM513.781064 830.713128c-246.763766 0-447.449653-193.838817-447.449653-432.183204 0-115.371506 46.585503-223.877075 130.997967-305.532113 5.204343-5.0268 11.932006-7.478833 18.786495-7.478833 6.854489 0 13.582151 2.574766 18.786559 7.478833 10.408751 10.053664 10.408751 26.237507 0 36.291171C160.390967 201.135566 119.390669 296.890101 119.390669 398.529861c0 210.022533 176.821875 380.811506 394.263505 380.811506s394.263377-170.788973 394.263377-380.811506c0-14.222229 11.93207-25.624483 26.656615-25.624483 14.724673 0 26.529789 11.524858 26.529789 25.624483C961.103956 636.874247 760.417941 830.713128 513.781064 830.713128z"  horiz-adv-x="1024" />

    
    <glyph glyph-name="qiaquan-copy" unicode="&#58888;" d="M1292.727 574.334h-874.58c-72.839 0-131.886-54.417-131.886-121.543v-459.248c0-67.127 59.048-121.543 131.886-121.543h876.586c0 0-10.7 25.146-11.038 38.83-0.356 14.418 26.564 42.869 26.564 42.869v42.87c0 0-26.564 28.447-26.564 42.87 0 14.424 26.564 42.87 26.564 42.87v42.87c0 0-26.564 28.447-26.564 42.87 0 14.424 26.564 42.87 26.564 42.87v42.87c0 0-26.564 28.447-26.564 42.87s26.564 42.87 26.564 42.87v42.87c0 0-26.564 28.448-26.564 42.87s26.564 42.87 26.564 42.87v42.868c0 0-26.564 28.447-26.564 42.87 0 14.426 9.032 20.457 9.032 20.457zM1238.010 519.094v-50.955c0 0-26.564-28.448-26.564-42.87 0-14.423 26.564-42.87 26.564-42.87v-42.87c0 0-26.564-28.446-26.564-42.87 0-14.423 26.564-42.869 26.564-42.869v-42.87c0 0-26.564-28.447-26.564-42.87 0-14.424 26.564-42.87 26.564-42.87v-42.87c0 0-26.564-28.447-26.564-42.87 0-14.424 26.564-42.87 26.564-42.87v-44.662l-8.69-24.352-818.942 0.001c-28.599 0-63.97 38.544-63.97 82.032v458.652c1.505 18.094 24.835 50.66 48.166 50.66l843.436 0.193zM827.077 136.38c-0.018 0-0.035-0.007-0.053-0.007v0.313l-103.912-0v63.166h103.913v0.336c0.018 0 0.035-0.006 0.053-0.006 12.447 0 22.538 10.091 22.538 22.538s-10.091 22.538-22.538 22.538c-0.018 0-0.035-0.007-0.053-0.007v0.007h-88.487l97.026 178.713c3.543 4.82 5.704 10.717 5.704 17.158 0 16.068-13.026 29.095-29.093 29.095-12.568 0-23.177-8.014-27.244-19.175h-0.214c0 0-83.921-163.892-87.799-174.953h-1.164c-5.433 13.776-91.688 174.953-91.688 174.953h-0.219c-3.947 11.144-14.473 19.175-26.971 19.175-15.861 0-28.719-12.858-28.719-28.719 0-5.943 1.806-11.463 4.897-16.043l-0.144-0.076 96.561-180.127-90.231 0c-12.447 0-22.538-10.091-22.538-22.538s10.091-22.538 22.538-22.538v-0.33h107.113v-63.166l-107.113-0v-0.308c-12.447 0-22.538-10.091-22.538-22.538 0-12.449 10.091-22.538 22.538-22.538v-0.313h107.113v-90.816h0.618c-0.386-1.863-0.596-3.791-0.596-5.769 0-15.632 12.673-28.306 28.307-28.306 15.632 0 28.306 12.673 28.306 28.306 0 1.978-0.21 3.905-0.595 5.769h0.723l0 90.816h103.912v0.318c0.019 0 0.035-0.007 0.054-0.007 12.447 0 22.538 10.091 22.538 22.538-0.005 12.45-10.095 22.541-22.543 22.541zM988.887 454.502c0 14.057 13.869 25.452 30.977 25.452v0c17.108 0 30.977-11.396 30.977-25.452v-38.002c0-14.057-13.869-25.452-30.977-25.452v0c-17.108 0-30.977 11.396-30.977 25.452v38.002zM988.887 314.168c0 14.058 13.869 25.452 30.977 25.452v0c17.108 0 30.977-11.395 30.977-25.452v-38.001c0-14.058-13.869-25.452-30.977-25.452v0c-17.108 0-30.977 11.395-30.977 25.452v38.001zM988.887 173.836c0 14.057 13.869 25.452 30.977 25.452v0c17.108 0 30.977-11.396 30.977-25.452v-38.002c0-14.057-13.869-25.452-30.977-25.452v0c-17.108 0-30.977 11.396-30.977 25.452v38.002zM988.887 33.502c0 14.058 13.869 25.452 30.977 25.452v0c17.108 0 30.977-11.395 30.977-25.452v-38.002c0-14.057-13.869-25.451-30.977-25.451v0c-17.108 0-30.977 11.395-30.977 25.451v38.002zM499.109 613.481l25.881 68.16c7.829 16.381 38.33 30.984 60.143 22.702l239.462-90.862h178.77l-380.27 144.392c-68.095 25.857-142.613-4.056-166.442-66.81l-29.458-77.582h71.914zM709.732 769.023l46.893 54.746c12.913 12.763 46.558 16.179 64.277 1l202.467-173.341 101.213-37.948h40.639l-290.477 248.805c-55.319 47.383-135.563 44.468-179.231-6.515l-52.784-61.624 67.003-25.123z"  horiz-adv-x="1332" />

    
    <glyph glyph-name="duanxin" unicode="&#58957;" d="M859.654321 830.984127 164.345679 830.984127c-89.697825 0-162.539683-72.841858-162.539683-162.539683l0-568.888889c0-89.697825 72.841858-162.539683 162.539683-162.539683l695.308642 0c89.697825 0 162.539683 72.841858 162.539683 162.539683L1022.194004 668.444444C1021.592005 758.142269 949.352146 830.984127 859.654321 830.984127zM305.213404 384.300999 55.985891 135.073486 55.985891 632.926514 305.213404 384.300999zM609.824809 349.385068c-25.885949-25.885949-60.801881-40.333921-98.125808-40.333921s-71.63786 14.447972-98.125808 40.333921L60.801881 702.758377c13.845973 45.149912 54.179894 74.647854 103.543798 74.647854l695.308642 0c49.363904 0 89.697825-28.895944 103.543798-74.647854L609.824809 349.385068zM340.129336 349.385068l39.129924-39.129924c35.517931-35.517931 82.473839-54.781893 133.04174-54.781893s97.52381 19.263962 133.04174 54.781893l39.129924 39.129924 279.929453-279.929453c-12.641975-47.557907-53.577895-78.259847-104.747795-78.259847L164.345679-8.804233c-51.1699 0-92.10582 30.70194-104.747795 77.657848L340.129336 349.385068zM968.014109 632.926514l0-497.853028L718.786596 384.300999 968.014109 632.926514z"  horiz-adv-x="1024" />

    
    <glyph glyph-name="weixin" unicode="&#58884;" d="M270.496 551.497c0-20.819 16.877-37.697 37.697-37.697s37.697 16.877 37.697 37.697c0 0 0 0 0 0 0 20.819-16.877 37.697-37.697 37.697-20.819 0-37.697-16.877-37.697-37.697 0-0 0-0 0-0zM564.093 356.558c0-16.298 13.212-29.51 29.51-29.51s29.51 13.212 29.51 29.51c0 16.298-13.212 29.51-29.51 29.51-16.298 0-29.51-13.212-29.51-29.51zM462.786 551.497c0-20.819 16.877-37.697 37.697-37.697s37.697 16.877 37.697 37.697c0 0 0 0 0 0 0 20.819-16.877 37.697-37.697 37.697-20.819 0-37.697-16.877-37.697-37.697 0-0 0-0 0-0zM813.979 834.391h-604.984c-80.099 0-145.035-65.148-145.035-145.512l0-604.231c0-80.364 64.936-145.512 145.035-145.512h604.984c80.1 0 145.035 65.148 145.035 145.512v604.23c0.001 80.365-64.934 145.513-145.035 145.513zM399.842 234.599c-33.871 0-61.109 6.919-95.052 13.624l-94.859-47.563 27.138 81.628c-67.935 47.481-108.585 108.656-108.585 183.207 0 129.113 122.189 230.775 271.358 230.775 133.428 0 250.314-81.236 273.796-190.57-8.634 0.965-17.335 1.594-26.129 1.594-128.901 0-230.705-96.199-230.705-214.751 0-19.731 3.071-38.733 8.374-56.861-8.374-0.659-16.819-1.083-25.335-1.083zM800.124 139.546l20.411-67.816-74.436 40.771c-27.139-6.803-54.399-13.626-81.422-13.626-129.108 0-230.798 88.248-230.798 196.924 0 108.495 101.689 196.929 230.798 196.929 121.937 0 230.497-88.434 230.497-196.929 0-61.2-40.581-115.39-95.049-156.253zM711.961 356.558c0-16.298 13.212-29.51 29.51-29.51s29.51 13.212 29.51 29.51c0 16.298-13.212 29.51-29.51 29.51-16.298 0-29.51-13.212-29.51-29.51z"  horiz-adv-x="1024" />

    
    <glyph glyph-name="jigouguanli" unicode="&#59011;" d="M855.585289-3.650901V741.568768a18.596544 18.596544 0 0 1-6.377244 14.018272L741.846852 849.161229a18.593474 18.593474 0 0 1-18.727527 3.400446L339.193259 709.0921a18.59552 18.59552 0 0 1-12.08627-17.419742v-53.210899c0-7.838525-4.91494-14.83487-12.28786-17.493419l-220.164329-79.389119a18.59552 18.59552 0 0 1-12.287861-17.487279l-0.194428-586.846662c-0.00307-10.272971 8.323573-18.602683 18.59552-18.602683h16.98893c10.269901 0 18.596544 8.325619 18.596543 18.59552v556.535309a18.597567 18.597567 0 0 0 12.779048 17.663288l270.610254 89.12076c12.028964 3.961218 24.413016-4.997827 24.413016-17.663288V-59.597097c0-10.269901 8.325619-18.59552 18.595521-18.59552h121.705899c10.269901 0 18.596544 8.325619 18.596544 18.59552V608.629014a18.59552 18.59552 0 0 1-8.93858 15.891945l-92.744287 56.357565a18.594497 18.594497 0 0 1-15.9646 1.601475l-75.495439-27.223015c-12.120039-4.370541-24.904203 4.609994-24.904203 17.493419 0 7.981788 5.092995 15.0733 12.657275 17.622356l273.961582 92.327802c12.0525 4.061502 24.534789-4.903683 24.534789-17.622356v-824.469618c0-10.269901 8.325619-18.59552 18.595521-18.59552h208.481241c10.269901 0 18.596544 8.325619 18.596544 18.59552v18.548449c0 10.269901-8.325619 18.59552-18.596544 18.59552h-49.056276c-10.269901 0.001023-18.59552 8.326643-18.59552 18.596543zM213.473953-79.305975h156.316161c10.269901 0 18.59552 8.325619 18.595521 18.595521v64.450894c0 10.799974-9.169847 19.328207-19.941168 18.547425l-156.316162-11.339256c-9.722432-0.705058-17.250896-8.79941-17.250896-18.547425v-53.110615c0.001023-10.270924 8.326643-18.596544 18.596544-18.596544zM215.262692 70.630896l156.316162 15.104c9.533121 0.920976 16.807804 8.93244 16.807804 18.509562v59.160402c0 11.501962-10.336416 20.24509-21.678742 18.33867l-156.316162-26.27748a18.59552 18.59552 0 0 1-15.513322-18.33867v-47.985898c0-10.978029 9.458419-19.566638 20.38426-18.510586zM218.412428 371.957733l156.316162 43.061748a18.59552 18.59552 0 0 1 13.657045 17.928324v61.867047c0 12.727882-12.498662 21.694091-24.556279 17.615192l-156.316162-52.886511a18.59552 18.59552 0 0 1-12.635785-17.615192v-52.042284c0.001023-12.281721 11.695367-21.190625 23.535019-17.928324zM217.122039 220.111372l156.316162 31.272238a18.59552 18.59552 0 0 1 14.948457 18.234293v58.840106c0 12.192693-11.535731 21.086248-23.327288 17.984607l-156.316162-41.12156a18.596544 18.596544 0 0 1-13.864776-17.984606v-48.991808c0-11.734252 10.736529-20.535709 22.243607-18.23327z"  horiz-adv-x="1024" />

    
    <glyph glyph-name="weizhi1" unicode="&#59057;" d="M890.333 517.665c0-208.933-378.333-645.665-378.333-645.665s-378.333 436.732-378.333 645.665c0 208.968 169.364 378.335 378.333 378.335 208.933 0 378.333-169.368 378.333-378.335M659.52 527.413c0 81.475-66.045 147.521-147.52 147.521-81.448 0-147.539-66.045-147.539-147.521 0-81.475 66.091-147.521 147.539-147.521 81.475 0.001 147.52 66.046 147.52 147.521z"  horiz-adv-x="1024" />

    
    <glyph glyph-name="shouji" unicode="&#58942;" d="M737.004 829.886H287.49c-29.913 0-54.156-24.243-54.156-54.15v-785.733c0-29.909 24.243-54.15 54.156-54.15h449.513c29.903 0 54.149 24.242 54.149 54.15V775.736c0 29.902-24.246 54.15-54.15 54.15z m-274.905-67.702h100.287c7.917 0 14.331-6.41 14.331-14.327 0-7.912-6.414-14.328-14.331-14.328H462.099c-7.912 0-14.323 6.416-14.323 14.328 0 7.916 6.411 14.327 14.323 14.327z m50.142-783.833c-24.53 0-44.41 19.885-44.41 44.41 0 24.53 19.88 44.421 44.41 44.421 24.532 0 44.416-19.89 44.416-44.42 0-24.526-19.884-44.41-44.416-44.41z m226.366 126.075h-452.73V686.09h452.73v-581.665z m0 0"  horiz-adv-x="1024" />

    
    <glyph glyph-name="dianpu" unicode="&#58948;" d="M864.2 294.3v-292.6H162V294.3H88.8v-307.2c0-26.4 29.3-58.5 55.6-58.5h735.9c26.4 0 55.6 32.1 55.6 58.5V294.3h-71.7zM147.4 747.7h731.4c24.8 0 43.9 19.1 43.9 43.9s-19.1 43.9-43.9 43.9H147.4c-24.8 0-43.9-19.1-43.9-43.9s19.1-43.9 43.9-43.9zM934.5 689.2H88.9L1.1 459.5c0-68.7 57.1-125.8 127.2-125.8s128.8 55.6 128.8 125.8c0-68.7 57.1-125.8 127.2-125.8s128.8 55.6 128.8 125.8c0-68.7 57.1-125.8 127.2-125.8 70.3 0 127.2 55.6 127.2 125.8 0-68.7 57.1-125.8 128.8-125.8 70.3 0 128.8 55.6 128.8 125.8l-90.6 229.7z"  horiz-adv-x="1025" />

    
    <glyph glyph-name="chongzhi" unicode="&#58912;" d="M643.584 433.664h-261.632c-12.8 0-23.552 10.752-23.552 23.552s10.752 23.552 23.552 23.552h261.632c12.8 0 23.552-10.752 23.552-23.552 0-13.312-10.24-23.552-23.552-23.552zM513.024 436.224c-5.632 0-11.264 2.048-15.36 5.632l-117.76 102.4c-9.728 8.704-10.752 23.552-2.048 33.28s23.552 10.752 33.28 2.048l101.888-89.088 101.888 89.088c9.728 8.704 24.576 7.68 33.28-2.048s7.68-24.576-2.048-33.28l-117.76-102.4c-4.096-3.584-9.728-5.632-15.36-5.632zM643.584 319.488h-261.632c-12.8 0-23.552 10.752-23.552 23.552 0 12.8 10.752 23.552 23.552 23.552h261.632c12.8 0 23.552-10.752 23.552-23.552 0-13.312-10.24-23.552-23.552-23.552zM513.024 183.296c-12.8 0-23.552 10.752-23.552 23.552v250.368c0 12.8 10.752 23.552 23.552 23.552s23.552-10.752 23.552-23.552v-250.368c0-12.8-10.752-23.552-23.552-23.552zM513.024-61.952c-246.272 0-446.464 200.192-446.464 446.464s200.192 446.464 446.464 446.464c30.208 0 60.416-3.072 90.112-9.216 12.8-2.56 20.992-14.848 18.432-27.648-2.56-12.8-14.848-20.992-27.648-18.432-26.112 5.632-53.248 8.192-80.384 8.192-220.16 0-399.36-179.2-399.36-399.36s179.2-399.36 399.36-399.36 399.36 179.2 399.36 399.36c0 51.2-9.728 101.376-28.672 148.48-4.608 12.288 1.024 25.6 13.312 30.72 11.776 4.608 25.6-1.024 30.72-13.312 20.992-52.736 31.744-108.544 31.744-165.888-0.512-245.76-200.704-446.464-446.976-446.464zM890.368 683.52h-186.88c-12.8 0-23.552 10.752-23.552 23.552s10.752 23.552 23.552 23.552h186.88c12.8 0 23.552-10.752 23.552-23.552 0-12.8-10.752-23.552-23.552-23.552zM796.672 589.824c-12.8 0-23.552 10.752-23.552 23.552v186.88c0 12.8 10.752 23.552 23.552 23.552 12.8 0 23.552-10.752 23.552-23.552v-186.88c0-12.8-10.24-23.552-23.552-23.552z"  horiz-adv-x="1024" />

    
    <glyph glyph-name="shijian" unicode="&#58894;" d="M513.71148-15.169235c-53.649897 0-105.703437 10.510378-154.712641 31.239491-47.330982 20.018939-89.835028 48.674583-126.332267 85.171822s-65.152882 79.001285-85.171821 126.332267c-20.729114 49.010227-31.240515 101.062743-31.240515 154.71264s10.510378 105.702414 31.240515 154.712641c20.018939 47.330982 48.675606 89.835028 85.171821 126.332267 36.497239 36.497239 79.001285 65.152882 126.332267 85.171821 49.010227 20.729114 101.062743 31.240515 154.712641 31.240515s105.702414-10.510378 154.711617-31.240515c47.330982-20.018939 89.835028-48.675606 126.332267-85.171821 36.497239-36.497239 65.152882-79.001285 85.171821-126.332267 20.730137-49.010227 31.239492-101.062743 31.239492-154.712641s-10.510378-105.702414-31.239492-154.71264c-20.018939-47.330982-48.674583-89.835028-85.171821-126.332267s-79.001285-65.152882-126.332267-85.171822c-49.009204-20.729114-101.062743-31.239492-154.711617-31.239491z m0 765.906827c-203.164143 0-368.450606-165.28544-368.450607-368.450607 0-203.164143 165.286464-368.450606 368.450607-368.450606S882.162086 179.122843 882.162086 382.286985c-0.001023 203.165166-165.286464 368.450606-368.450606 368.450607zM810.386366 367.114424h-308.946374V562.134073c0 8.010441-6.492878 14.504342-14.503319 14.504342s-14.503319-6.493901-14.503319-14.504342v-195.019649h-6.744611c-8.010441 0-14.504342-6.493901-14.505365-14.504342 0-8.010441 6.493901-14.504342 14.504342-14.504342h6.919596c1.033539-6.995321 7.046486-12.371772 14.329357-12.373818 7.284917 0 13.297864 5.376451 14.329357 12.373818l309.120336 0.002047c8.010441 0 14.504342 6.491855 14.504342 14.502295s-6.493901 14.504342-14.504342 14.504342z"  horiz-adv-x="1024" />

    
    <glyph glyph-name="dengdai" unicode="&#58947;" d="M604.839572-126.805373c10.307923 2.0138 20.649978 3.959335 30.480051 6.485117a26.384187 26.384187 0 0 1 15.769074 11.366021c3.379087 5.836605 4.437185 12.765441 2.969501 19.352955a25.291957 25.291957 0 0 1-24.575181 19.352955c-1.979667 0-3.959335-0.511983-5.90487-1.023966a272.033599 272.033599 0 0 0-27.578814-5.939002 25.462618 25.462618 0 0 1-20.137995-29.729142c0.955701-6.450985 4.880904-12.389987 10.307923-16.383454a25.121296 25.121296 0 0 1 14.233126-4.471318c1.467684 0.477851 2.935369 0.477851 4.437185 0.989834z m368.969034 635.268424a22.458985 22.458985 0 0 1 7.850405 1.501817 25.633279 25.633279 0 0 1 16.281058 32.220792c-3.41322 9.898337-6.894704 19.830806-10.819906 29.763275a25.053032 25.053032 0 0 1-23.61948 15.837339c-3.41322 0-6.382721-0.511983-9.352221-1.979668a24.336255 24.336255 0 0 1-13.755275-13.37982 24.063198 24.063198 0 0 1 0-19.352955c3.41322-8.942635 6.894704-17.851138 9.79594-26.793774a26.623113 26.623113 0 0 1 9.352222-12.90197c3.925202-3.41322 8.874371-4.915036 14.267257-4.915036z m-218.446051-578.233525a23.892537 23.892537 0 0 1 12.799573 3.413219c8.840239 5.495283 18.19246 10.922303 26.554848 16.383454a26.998567 26.998567 0 0 1 10.819906 16.383454 27.135095 27.135095 0 0 1-3.413219 19.318823 26.281791 26.281791 0 0 1-21.161962 11.400153 22.766174 22.766174 0 0 1-13.755275-4.437185c-7.782141-5.461151-15.803207-10.444452-24.131462-14.91577a25.428486 25.428486 0 0 1-9.318089-34.712443 22.356588 22.356588 0 0 1 7.372554-7.918669 23.824273 23.824273 0 0 1 14.233126-4.915036z m228.310256 418.051131c3.925202-2.969501 8.840239-4.437185 13.789407-4.437185h0.477851a25.18956 25.18956 0 0 1 25.121296 24.745842c0 10.41032 0 20.820639-0.511983 31.230959a25.087164 25.087164 0 0 1-25.087164 24.302123h-0.989834a25.326089 25.326089 0 0 1-24.09733-26.281791 266.231126 266.231126 0 0 0 0-28.261458 27.886004 27.886004 0 0 1 11.263625-21.29849z m-67.445219-241.997266a24.438652 24.438652 0 0 1-15.257091 4.949168 25.599147 25.599147 0 0 1-20.172128-10.41032c-5.631812-7.679744-11.536682-15.120563-17.748741-22.356588a25.360221 25.360221 0 0 1 3.003633-35.702276 25.940469 25.940469 0 0 1 16.724776-5.973135 26.076997 26.076997 0 0 1 19.182294 8.942636c6.894704 7.952802 13.311556 16.383454 19.660144 24.814106a26.58898 26.58898 0 0 1-5.392887 35.736409z m67.445219 152.229592c-2.49165 1.023966-4.949168 1.023966-7.372554 1.023966a24.848238 24.848238 0 0 1-24.131463-17.885271c-2.935369-8.942635-5.90487-17.851138-9.318089-26.793773a25.565014 25.565014 0 0 1 8.874371-29.729143c1.433552-1.023966 3.41322-2.0138 5.392887-2.969501a25.565014 25.565014 0 0 1 32.49385 14.881638c3.41322 9.420486 6.894704 19.318823 10.307923 29.69501a25.360221 25.360221 0 0 1-16.246925 31.777074zM880.28639 712.300523a7.748008 7.748008 0 0 1 5.939002 2.969501 7.201893 7.201893 0 0 1 0.477851 6.450985l-36.896903 133.866471-38.876571-56.488783-14.267258 9.420486A505.839139 505.839139 0 0 1 512.819173 895.795207c-29.524349 0-59.048698-2.49165-88.538916-7.91867-12.799573-2.49165-26.11113-4.949168-38.910703-8.430652L383.970134 878.933902c-113.660211-29.251292-211.073498-95.228826-281.454085-189.945668l-0.989833-1.467685c0-0.511983-0.477851-0.511983-0.477851-1.023966-2.457518-3.447352-4.915036-6.450985-6.894703-9.898336a300.363321 300.363321 0 0 1-10.819906-16.383454l-1.023966-1.979668C24.250925 567.9896-3.259625 463.852272 1.177561 356.71131v-1.467685c0.511983-9.898337 1.467684-20.342789 2.49165-30.78724l0.477851-1.945535c1.023966-10.922303 2.457518-21.332622 4.437185-31.265092a511.232026 511.232026 0 0 1 143.150429-277.221692l0.47785-0.511983c20.20626-19.796673 42.323923-38.70591 65.431419-55.021099a500.480384 500.480384 0 0 1 203.700944-85.80834c1.501817-0.477851 2.969501-0.477851 4.437185-0.477851a24.916503 24.916503 0 0 1 24.575181 20.820639 27.647078 27.647078 0 0 1-3.925203 18.840972 25.257825 25.257825 0 0 1-16.281057 10.444452 449.384487 449.384487 0 0 0-113.114096 36.180128l-0.511983 0.511983c-0.477851 0-0.477851 0.511983-0.955702 0.511983a278.518716 278.518716 0 0 0-24.09733 12.389987h-0.511983l-2.49165 1.467684a450.818039 450.818039 0 0 0-41.299957 26.281791c-100.382787 71.404553-167.281891 178.033532-188.409719 300.533982-21.161961 122.534582 6.382721 245.478751 77.207026 346.646578a457.50795 457.50795 0 0 0 113.148229 113.557815l1.501816 1.023966a457.132496 457.132496 0 0 0 262.71551 82.292723c91.030566 0 179.09163-26.759641 254.865104-77.855538l14.745109-9.898337-38.876571-57.034898 136.289857 13.37982z m-99.358821-515.737475a17.40742 17.40742 0 0 1 7.884537 32.766908l-285.413419 148.713976V691.957735a17.509816 17.509816 0 0 1-17.202627 17.373287 17.509816 17.509816 0 0 1-17.236759-17.373287v-334.734442l304.049599-158.71471a14.472051 14.472051 0 0 1 7.918669-1.979667z"  horiz-adv-x="1024" />

    
    <glyph glyph-name="sousuo" unicode="&#58914;" d="M727.934 201.316c60.047 67.008 96.572 155.563 96.572 252.643 0 209.08-169.492 378.596-378.596 378.596-209.102 0-378.598-169.516-378.598-378.596 0-209.129 169.495-378.643 378.598-378.643 95.079 0 181.977 35.056 248.505 92.963l230.23-230.251 33.288 33.286-229.999 230.002z m-282.023-79.174c-182.943 0-331.772 148.873-331.772 331.817 0 182.897 148.828 331.815 331.772 331.815 182.942 0 331.77-148.918 331.77-331.815 0-182.943-148.828-331.817-331.77-331.817z"  horiz-adv-x="1024" />

    
    <glyph glyph-name="erweima" unicode="&#58896;" d="M511.5-25h51.187v51.187h-51.187v-51.187zM613.875-25h51.188v51.187h-51.188v-51.187zM716.25-25h51.187v51.187h-51.187v-51.187zM818.625-25h51.188v51.187h-51.188v-51.187zM460.313 26.187h51.187v51.188h-51.187v-51.188zM665.063 26.187h51.187v51.188h-51.187v-51.188zM767.437 26.187h51.187v51.188h-51.187v-51.188zM869.813 26.187h51.187v51.188h-51.187v-51.188zM511.5 77.375h51.187v51.187h-51.187v-51.187zM613.875 77.375h51.188v51.187h-51.188v-51.187zM716.25 77.375h51.187v51.187h-51.187v-51.187zM204.375 77.375h102.375v102.375h-102.375v-102.375zM460.313 128.562h51.187v51.188h-51.187v-51.188zM562.687 128.562h51.188v51.188h-51.188v-51.188zM767.437 128.562h51.187v51.188h-51.187v-51.188zM869.813 128.562h51.187v51.188h-51.187v-51.188zM511.5 179.75h51.187v51.186h-51.187v-51.186zM613.875 179.75h51.188v51.186h-51.188v-51.186zM716.25 179.75h51.187v51.186h-51.187v-51.186zM818.625 179.75h51.188v51.186h-51.188v-51.186zM153.188 230.937h204.748v-204.749h-204.748v204.749zM102-25h307.125v307.125h-307.125v-307.125zM460.313 230.937h51.187v51.188h-51.187v-51.188zM562.687 230.937h51.188v51.188h-51.188v-51.188zM665.063 230.937h51.187v51.188h-51.187v-51.188zM767.437 230.937h51.187v51.188h-51.187v-51.188zM869.813 230.937h51.187v51.188h-51.187v-51.188zM511.5 282.125h51.187v51.188h-51.187v-51.188zM613.875 282.125h51.188v51.188h-51.188v-51.188zM818.625 282.125h51.188v51.188h-51.188v-51.188zM153.188 333.313h51.187v51.187h-51.187v-51.187zM357.937 333.313h51.188v51.187h-51.188v-51.187zM460.313 333.313h51.187v51.187h-51.187v-51.187zM562.687 333.313h51.188v51.187h-51.188v-51.187zM665.063 333.313h51.187v51.187h-51.187v-51.187zM767.437 333.313h51.187v51.187h-51.187v-51.187zM869.813 333.313h51.187v51.187h-51.187v-51.187zM102 384.5h51.188v51.187h-51.188v-51.187zM204.375 384.5h51.187v51.187h-51.187v-51.187zM306.75 384.5h51.186v51.187h-51.186v-51.187zM409.125 384.5h51.188v51.187h-51.188v-51.187zM613.875 384.5h51.188v51.187h-51.188v-51.187zM716.25 384.5h51.187v51.187h-51.187v-51.187zM818.625 384.5h51.188v51.187h-51.188v-51.187zM460.313 435.687h51.187v51.188h-51.187v-51.188zM511.5 486.875h51.187v51.188h-51.187v-51.188zM460.313 538.063h51.187v51.187h-51.187v-51.187zM511.5 589.25h51.187v51.188h-51.187v-51.188zM204.375 589.25h102.375v102.374h-102.375v-102.374zM460.313 640.438h51.187v51.186h-51.187v-51.186zM716.25 589.25h102.374v102.374h-102.374v-102.374zM511.5 691.625h51.187v51.187h-51.187v-51.187zM153.188 742.812h204.748v-204.748h-204.748v204.748zM102 486.875h307.125v307.125h-307.125v-307.125zM460.313 742.812h51.187v51.188h-51.187v-51.188zM665.063 742.812h204.749v-204.748h-204.749v204.748zM613.875 486.875h307.125v307.125h-307.125v-307.125z"  horiz-adv-x="1024" />

    
    <glyph glyph-name="shangcheng" unicode="&#58908;" d="M714.24 615.381333H302.677333V673.28C302.634667 779.264 387.242667 853.333333 508.458667 853.333333c121.173333 0 205.824-74.069333 205.824-180.096v-57.856z m-204.8-550.101333c0-0.426667-223.573333 133.333333-194.218667 285.525333 0 0 45.866667 155.861333 194.218667 28.16 0 0 148.693333 127.701333 192.725333-35.498666 0 0 36.693333-135.68-192.725333-278.186667z m411.434667 471.722667a79.018667 79.018667 0 0 1-78.805334 78.378666h-85.12V673.28C756.906667 804.394667 654.762667 896 508.458667 896 362.112 896 259.968 804.394667 259.968 673.28v-57.856H174.805333A79.018667 79.018667 0 0 1 96 537.002667L64-43.946667v-1.152C64-88.746667 99.413333-124.16 142.805333-124.16h731.306667a79.018667 79.018667 0 0 1 78.762667 79.061333l-32 582.101334z"  horiz-adv-x="1024" />

    
    <glyph glyph-name="jiatingyisheng-S" unicode="&#59175;" d="M950.117096 479.76022l-382.27503 340.124349a76.144331 76.144331 0 0 1-108.73633 0l-377.578776-330.637917c-30.027122-30.446172-34.875101-75.06058-4.855204-105.499527l98.859748-79.077683v-302.958922c0-41.919481 43.212757-77.560432 84.539786-77.560432h505.259071c41.35593 0 72.741353 35.648176 72.741353 77.560432v292.468214l110.976081 80.103634c30.027122 30.417272 31.096423 75.03168 1.069301 105.477852m-283.870458-269.080872c-38.509278-60.437169-134.768024-135.107599-138.850152-138.272151a25.034643 25.034643 0 0 0-15.403711-5.339279 25.114118 25.114118 0 0 0-15.410936 5.339279c-4.082128 3.164552-100.413124 77.986707-138.835702 138.272151-13.373485 20.97419-30.019897 47.11426-30.019897 84.756537 0 63.334396 47.265985 114.855909 105.362252 114.855909 30.402822 0 58.891018-14.067085 78.911508-38.783828 20.042165 24.716743 48.530361 38.783828 78.904283 38.783828 58.103493 0 105.376702-51.521513 105.376702-114.855909 0-37.642278-16.660862-63.775122-30.034347-84.756537"  horiz-adv-x="1024" />

    
    <glyph glyph-name="jiahao" unicode="&#58915;" d="M512.064 896a512 512 0 1 1 0-1024.064A512 512 0 0 1 512 896z m167.424-518.016c0-5.504-4.48-9.984-9.984-9.984h-133.12v-141.888c0-5.504-4.48-9.984-9.984-9.984h-12.032a9.984 9.984 0 0 0-9.984 9.984V368H360.512a9.984 9.984 0 0 0-9.984 9.984v12.032c0 5.504 4.48 9.984 9.984 9.984h143.872V535.168c0 5.504 4.48 9.984 9.984 9.984h12.032c5.504 0 9.984-4.48 9.984-9.984V400h133.12c5.504 0 9.984-4.48 9.984-9.984v-12.032z"  horiz-adv-x="1024" />

    
    <glyph glyph-name="xiangqing" unicode="&#58932;" d="M448 0H234.667C174.933 0 128 46.933 128 106.667V661.333C128 721.067 174.933 768 234.667 768H704c59.733 0 106.667-46.933 106.667-106.667v-128c0-12.8-8.534-21.333-21.334-21.333S768 520.533 768 533.333v128c0 34.134-29.867 64-64 64H234.667c-34.134 0-64-29.866-64-64v-554.666c0-34.134 29.866-64 64-64H448c12.8 0 21.333-8.534 21.333-21.334S460.8 0 448 0zM708.267 341.333c81.066 0 149.333-68.266 149.333-149.333s-68.267-149.333-149.333-149.333S558.933 110.933 558.933 192 627.2 341.333 708.267 341.333m0 42.667c-106.667 0-192-85.333-192-192s85.333-192 192-192 192 85.333 192 192-85.334 192-192 192zM644.267 221.867c-4.267 0-12.8 4.266-17.067 8.533-8.533 8.533-8.533 21.333 0 29.867 25.6 25.6 51.2 34.133 81.067 34.133 25.6 0 55.466-8.533 72.533-25.6 8.533-8.533 8.533-21.333 0-29.867s-21.333-8.533-29.867 0c-12.8 12.8-25.6 17.067-42.666 17.067s-34.134-8.533-46.934-25.6c-4.266-4.267-12.8-8.533-17.066-8.533zM904.533-38.4l-89.6 89.6c-8.533 8.533-8.533 21.333 0 29.867 8.534 8.533 21.334 8.533 29.867 0l89.6-89.6c8.533-8.534 8.533-21.334 0-29.867-8.533-8.533-21.333-8.533-29.867 0zM618.667 554.667H320c-12.8 0-21.333 8.533-21.333 21.333 0 12.8 8.533 21.333 21.333 21.333h298.667c12.8 0 21.333-8.533 21.333-21.333 0-12.8-8.533-21.333-21.333-21.333zM618.667 426.667H320c-12.8 0-21.333 8.533-21.333 21.333 0 12.8 8.533 21.333 21.333 21.333h298.667c12.8 0 21.333-8.533 21.333-21.333 0-12.8-8.533-21.333-21.333-21.333zM588.8 187.733a0.5 0.5 0 1 1 42.667 0 0.5 0.5 0 1 1-42.667 0z"  horiz-adv-x="1024" />

    
    <glyph glyph-name="zhifubao" unicode="&#58941;" d="M896 245.333333l-247.04 83.072s18.986667 28.416 39.253333 84.138667c20.266667 55.722667 23.168 86.314667 23.168 86.314667l-159.914666 1.322666v54.613334l193.664 1.365333V594.773333h-193.706667V682.666667h-94.848v-87.893334H275.882667v-38.613333l180.693333 1.28v-58.581333H311.637333v-30.592h298.325334s-3.285333-24.832-14.72-55.722667c-11.434667-30.890667-23.210667-57.941333-23.210667-57.941333s-140.074667 49.024-213.888 49.024-163.584-29.653333-172.288-115.712c-8.661333-86.016 41.813333-132.608 112.938667-149.76 71.125333-17.237333 136.789333 0.170667 193.962666 28.16 57.173333 27.946667 113.28 91.477333 113.28 91.477333l287.914667-139.818667A142.08 142.08 0 0 0 753.792 0H270.208A142.08 142.08 0 0 0 128 142.208V625.792A142.08 142.08 0 0 0 270.208 768h483.584A142.08 142.08 0 0 0 896 625.792v-380.458667z m-359.68 48s-88.789333-108.117333-193.408-108.117333c-104.661333 0-126.634667 51.370667-126.634667 88.32 0 36.906667 21.76 77.056 110.805334 82.858667 89.002667 5.802667 209.28-63.061333 209.28-63.061334z"  horiz-adv-x="1024" />

    
    <glyph glyph-name="weixin1" unicode="&#58910;" d="M690.665 605.417c11.584 0 23.024-0.851 34.404-2.122-30.91 143.967-184.816 250.915-360.507 250.915-196.401 0-357.302-133.871-357.302-303.862 0-98.124 53.525-178.701 142.989-241.196l-35.734-107.484 124.877 62.638c44.718-8.853 80.566-17.937 125.168-17.937 11.207 0 22.329 0.548 33.363 1.414-6.991 23.889-11.035 48.906-11.035 74.857 0.002 156.099 134.038 282.775 303.776 282.775zM498.538 702.286c26.896 0 44.718-17.693 44.718-44.583 0-26.779-17.822-44.715-44.718-44.715-26.779 0-53.643 17.937-53.643 44.715 0.001 26.892 26.865 44.583 53.643 44.583zM248.494 612.986c-26.78 0-53.817 17.937-53.817 44.715 0 26.892 27.038 44.583 53.817 44.583 26.778 0 44.601-17.693 44.601-44.583 0-26.778-17.823-44.715-44.601-44.715zM1016.739 326.944c0 142.841-142.93 259.279-303.484 259.279-169.999 0-303.89-116.439-303.89-259.279 0-143.099 133.891-259.276 303.89-259.276 35.588 0 71.495 8.985 107.228 17.937l97.985-53.669-26.866 89.285c71.727 53.801 125.136 125.148 125.136 205.723zM614.749 371.646c-17.794 0-35.761 17.692-35.761 35.745 0 17.807 17.968 35.732 35.761 35.732 27.011 0 44.718-17.925 44.718-35.732 0-18.053-17.708-35.745-44.718-35.745zM811.267 371.646c-17.68 0-35.501 17.692-35.501 35.745 0 17.807 17.822 35.732 35.501 35.732 26.779 0 44.716-17.925 44.716-35.732 0.001-18.053-17.937-35.745-44.716-35.745z"  horiz-adv-x="1024" />

    
    <glyph glyph-name="wo" unicode="&#59053;" d="M510.5 836.6c-151.8 0-274.9-123.1-274.9-274.9 0-112.5 67.7-209.1 164.5-251.6C237 262.4 117.8 111.9 117.8-66.5h39.3c0 195.2 158.2 353.4 353.4 353.4 13.5 0 26.9-0.9 40-2.4 0.2 2 0.9 3.9 1.2 5.8C683.9 310.2 785.4 424 785.4 561.7c0 151.8-123.1 274.9-274.9 274.9z m0-510.5c-130.1 0-235.6 105.5-235.6 235.6S380.4 797.3 510.5 797.3s235.6-105.5 235.6-235.6-105.5-235.6-235.6-235.6zM725 262.1c-2.3-13.6-7.7-26-15.4-36.7 93.1-63.6 154.3-170.6 154.3-291.9h39.3c0 137.6-71 258.5-178.2 328.6z"  horiz-adv-x="1024" />

    
    <glyph glyph-name="tanhao1" unicode="&#58955;" d="M512-78.486c-254.2 0-460.738 206.538-460.738 460.738S257.8 842.99 512 842.99s460.738-206.538 460.738-460.738S766.2-78.486 512-78.486z m0 889.7c-238.313 0-428.963-190.65-428.963-428.962S273.687-46.711 512-46.711s428.963 190.65 428.963 428.963S750.313 811.215 512 811.215z m0-661.979z m-42.367 0c0-23.398 18.969-42.367 42.367-42.367s42.367 18.969 42.367 42.367-18.969 42.367-42.367 42.367-42.367-18.969-42.367-42.367m0 492.513c0 10.592 5.296 15.888 15.888 15.888h47.662c10.592 0 15.888-5.296 15.888-15.888l-21.183-344.23c0-10.591-10.592-15.887-15.888-15.887h-5.296c-10.592 0-15.887 5.296-15.887 15.888l-21.184 344.229z"  horiz-adv-x="1024" />

    
    <glyph glyph-name="womorenzhuangtai" unicode="&#58923;" d="M847.404467-128H217.25062c-58.441687 0-104.17866 48.277916-104.17866 104.17866 0 188.029777 152.456576 340.486352 340.486353 340.486352h157.538461c188.029777 0 340.486352-152.456576 340.486353-340.486352 2.540943-55.900744-45.736973-104.17866-104.17866-104.17866z m-236.307693 393.846154h-157.538461c-160.079404 0-289.667494-129.588089-289.667494-289.667494 0-27.950372 22.868486-53.359801 53.359801-53.359801h630.153847c27.950372 0 53.359801 22.868486 53.359801 53.359801 0 160.079404-129.588089 289.667494-289.667494 289.667494z m-78.769231 78.769231c-144.833747 0-261.717122 116.883375-261.717121 261.717121S387.493797 870.590571 532.327543 870.590571s261.717122-116.883375 261.717122-261.717122-116.883375-264.258065-261.717122-264.258064z m0 472.615384c-116.883375 0-210.898263-94.014888-210.898263-210.898263s94.014888-210.898263 210.898263-210.898263c116.883375 0 210.898263 94.014888 210.898263 210.898263s-94.014888 210.898263-210.898263 210.898263z"  horiz-adv-x="1024" />

    
    <glyph glyph-name="bianji" unicode="&#59055;" d="M815.53-63.47H195.138c-32.114 0-65.541 14.132-90.842 39.432-25.299 25.3-40.307 57.85-40.307 89.965V710.78c0 33.148 15.633 63.797 43.115 85.248 24.101 18.814 55.688 29.754 88.035 29.754h336.699c16.888 0 30.58-13.81 30.58-30.7s-13.692-30.699-30.58-30.699h-336.7c-33.18 0-69.75-21.06-69.75-53.603v-644.855c0-33.53 36.22-67.998 69.75-67.998H815.53c32.542 0 51.755 34.817 51.755 67.998v332.62c0 16.889 13.81 30.58 30.699 30.58s30.7-13.691 30.7-30.58v-332.62c0-32.348-10.016-63.056-28.828-87.158-21.452-27.482-51.177-42.237-84.326-42.237zM488.65 345.787c-9.913 0-19.826 3.782-27.39 11.346-15.126 15.127-15.126 39.65 0 54.777L870.335 820.983c15.127 15.127 39.652 15.127 54.779 0s15.126-39.65 0-54.776L516.039 357.133c-7.563-7.564-17.477-11.346-27.389-11.346z"  horiz-adv-x="1024" />

    
    <glyph glyph-name="wode-wode" unicode="&#58893;" d="M521.798086 352.706112c149.770748 0 271.746924 121.976177 271.746925 271.746925S671.568834 896 521.798086 896 250.051162 774.023823 250.051162 624.253076s121.976177-271.546963 271.746924-271.546964zM942.115993 120.751416c-19.396212 41.591877-46.990822 79.184534-81.983988 111.778168-70.386253 65.387229-164.567858 102.979887-258.14958 102.979887h-160.168717c-93.781683 0-187.763327-37.592658-258.14958-102.979887-34.993165-32.593634-62.587776-70.186292-81.983987-111.778168-20.396016-43.791447-30.793986-89.782464-30.793986-137.173209 0-61.587971 49.990236-111.578207 111.578207-111.578207h678.867409c61.587971 0 111.578207 49.990236 111.578208 111.578207-0.199961 47.390744-10.397969 93.581722-30.793986 137.173209z"  horiz-adv-x="1024" />

    
    <glyph glyph-name="qq" unicode="&#58889;" d="M527.221 10.834c-5.727 3.411-13.729 9.086-20.082 9.086-4.989 0-11.502-4.818-17.083-7.846-5.9-3.207-17.151-4.425-17.151-4.425l2.646 14.56 21.178 14.559 39.891 0.037 4.751-28.836c0.001 0-9.507 0.102-14.149 2.865zM364.596-31.178c-80.67-3.771-147.598 23.619-149.476 61.169-1.883 37.558 61.988 71.059 142.657 74.826 80.67 3.773 147.589-23.618 149.475-61.168 1.885-37.556-61.987-71.055-142.656-74.828zM649.742-31.178c-80.61 3.773-144.442 37.275-142.557 74.828 1.883 37.551 68.757 64.946 149.371 61.168 80.62-3.766 144.446-37.268 142.56-74.826-1.882-37.55-68.757-64.939-149.372-61.169zM506.784 18.714c-166.278 0-301.759 109.906-301.759 283.957 0 170.805 134.794 309.29 301.075 309.29s301.076-138.484 301.076-309.29c0.001-172.985-134.109-283.957-300.387-283.957zM860.474 154.721c-21.022-43.295-140.315 122.352-82.709 291.874 0 0 146.087-146.301 82.709-291.874zM154.912 154.734c-65.376 142.861 77.958 293.493 77.958 293.493 58.739-168.522-56.739-336.459-77.958-293.493zM275.519 285.142c0-138.281 91.662-248.362 232.077-248.362 140.425 0 231.099 110.080 231.099 248.362 0 131.876-100.121 232.315-231.591 232.315s-231.585-100.435-231.585-232.315zM771.729 497.415c8.625 0 15.616-3.396 15.616-7.58s-5.924-24.935-14.551-24.935-16.681 20.753-16.681 24.935 6.99 7.58 15.616 7.58zM241.771 496.306c8.476 0 15.347-3.788 15.347-8.463s-6.773-25.607-15.25-25.607-15.444 20.931-15.444 25.607c0.001 4.669 6.871 8.463 15.348 8.463zM780.841 537.426c-4.322-154.143-47.081-192.939-274.724-192.939s-274.882 36.897-274.882 191.102c0 168.338 122.844 289.555 274.361 289.555 151.532 0 279.476-136.7 275.247-287.717zM404.14 173.637c-22.275-0.588-74.335 6.052-87.806 20.885-5.649 6.214-6.756 10.097-6.756 24.364 0 81.085 16.889 139.225 16.889 139.225 54.233 61.062 94.622-27.194 94.622-27.194v-140.551c0-10.438-8.127-16.487-16.945-16.723zM507.104 286.18c-138.85 0-271.114 69.173-305.469 121.55 1.468 3.209 17.927 61.33 24.742 81.803 14.213-29.934 94.57-120.899 280.726-120.899 186.16 0 269.829 100.396 279.872 124.313 10.22-29.873 22.356-79.161 23.888-85.213-54.092-71.089-181.151-121.551-303.762-121.551zM386.87 613.413c-1.551 40.304 20.283 73.987 48.743 75.237 28.47 1.25 52.795-30.414 54.336-70.714 1.551-40.293-20.266-73.971-48.733-75.228-28.483-1.242-52.816 30.423-54.347 70.705zM524.373 615.552c0 40.305 23.087 72.983 51.556 72.983s51.553-32.679 51.553-72.983c0-40.3-23.086-72.97-51.553-72.97-28.47 0-51.556 32.669-51.556 72.97zM630.55 438.285c-60.295-31.318-75.971-49.503-124.435-49.532-47.417-0.027-64.144 18.214-124.437 49.532-94.852 49.26-52.572 53.396 7.761 71.356 35.778 10.644 84.991 15.858 116.681 15.858s80.897-5.211 116.672-15.858c60.331-17.956 102.614-22.094 7.755-71.356zM653.248 482.622s-18.683-26.348-69.536-44.978c-26.63-9.76-37.776-32.809-76.605-32.809s-49.806 22.931-76.393 32.809c-50.169 18.638-69.548 44.978-69.548 44.978 11.291-8.349 56.228-41.589 145.941-41.589 89.715 0 134.855 33.244 146.144 41.589zM594.454 594.062c-3.882 0-7.051 2.926-7.051 6.551v1.518c0 17.074-6.962 30.439-15.882 30.439-8.913 0-15.903-13.363-15.903-30.439v-1.518c0-3.623-3.145-6.551-7.051-6.551-3.882 0-7.051 2.926-7.051 6.551v1.518c0 25.645 12.345 43.564 30.003 43.564 17.665 0 29.981-17.919 29.981-43.564v-1.518c-0.001-3.623-3.168-6.551-7.053-6.551zM472.791 614.562c1.498-18.961-8.829-35.819-23.082-37.661-14.231-1.824-27.007 12.039-28.506 30.999-1.518 18.961 8.81 35.819 23.041 37.661 14.253 1.824 27.030-12.039 28.548-30.999zM464.176 616.277c0.194-7.095-3.451-13.19-8.199-13.558-4.708-0.412-8.699 5.011-8.918 12.147-0.219 7.070 3.471 13.19 8.199 13.603 4.727 0.37 8.721-5.074 8.918-12.193z"  horiz-adv-x="1024" />

    
    <glyph glyph-name="chenggong" unicode="&#59146;" d="M566.248186 271.502884L964.274605 669.505488a29.053023 29.053023 0 0 0 41.150511-0.071441 29.053023 29.053023 0 0 0 0.071442-41.174326L589.061953 211.825116a28.981581 28.981581 0 0 0-26.719255-7.858604 29.076837 29.076837 0 0 0-19.598884 8.573023l-208.300651 208.276837a29.100651 29.100651 0 0 0 0 41.269581 29.124465 29.124465 0 0 0 41.245767-0.023813l190.559256-190.559256z m320.202419-114.426047l0.142883 0.23814a29.291163 29.291163 0 0 0 39.959814 10.90679 29.291163 29.291163 0 0 0 5.620093-46.437209c-140.264186-232.68614-440.08186-312.058047-674.411162-176.747163-237.139349 136.882605-317.44 441.748837-179.342884 680.888558C216.397395 864.922791 520.239628 947.866791 757.283721 811.341395l-0.523907-0.881116c13.169116-8.334884 17.455628-25.71907 9.525581-39.435907a29.291163 29.291163 0 0 0-45.746604-6.501209C512.500093 879.068279 249.236837 805.173581 128.928744 596.777674c-121.832186-211.015442-50.985674-480.01786 158.243721-600.826046 208.65786-120.450977 476.112372-48.032744 598.420837 161.625302l0.857303-0.476279z"  horiz-adv-x="1024" />

    
    <glyph glyph-name="dongtai" unicode="&#59229;" d="M453.18 247.58c26.466 71.875-25.689 157.762-115.727 190.846l-209.657 77.195c-20.629 7.524-38.662 11.157-53.453 11.157-50.208 0-65.647-40.868-32.823-107.165l24.91-50.079c42.814-86.016 136.484-178.001 208.23-204.467 15.698-5.838 31.915-8.563 47.744-8.563 56.565 0 110.147 34.9 130.775 91.076zM376.505 441.409c12.715-4.671 25.687-6.876 38.922-6.876 61.495 0 124.678 48.523 151.923 122.732l77.324 209.917c24.131 65.129 8.044 103.531-35.158 103.531-16.477 0-37.105-5.579-60.848-17.385l-50.079-24.91c-86.016-42.813-178.001-136.484-204.467-208.229-26.466-72.005 10.639-152.313 82.384-178.78zM982.512 345.921l-24.91 50.080c-42.814 86.146-136.484 178.001-208.23 204.597-15.827 5.968-31.915 8.562-47.872 8.562-56.697 0-110.278-34.899-130.907-91.076-26.467-71.875 25.687-157.761 115.726-190.845l209.917-77.324c20.629-7.525 38.532-11.157 53.453-11.157 50.079 0 65.647 40.867 32.823 107.164zM647.268 323.996c-12.715 4.8-25.689 7.006-38.922 7.006-61.495 0-124.678-48.523-151.923-122.732l-77.325-209.658c-24.001-65.129-8.043-103.531 35.29-103.531 16.477 0 37.105 5.579 60.847 17.385l50.079 24.91c86.016 42.814 178.001 136.484 204.467 208.23 26.467 71.616-10.638 151.923-82.513 178.389z"  horiz-adv-x="1024" />

    
    <glyph glyph-name="click" unicode="&#58916;" d="M640-89.6c-12.8-6.4-25.6-6.4-32 6.4 0 0-32 25.6-153.6 102.4-70.4 38.4-128 89.6-179.2 128-44.8 38.4-89.6 70.4-128 96-32 19.2-51.2 51.2-51.2 83.2 0 38.4 19.2 76.8 57.6 96 19.2 6.4 38.4 12.8 64 6.4l-147.2 262.4c-19.2 38.4-38.4 121.6 32 160 25.6 12.8 51.2 19.2 76.8 6.4 38.4-12.8 64-57.6 70.4-64l70.4-115.2c6.4 12.8 19.2 25.6 32 32 38.4 19.2 70.4 25.6 102.4 12.8 6.4 0 12.8-6.4 19.2-12.8 12.8 12.8 25.6 25.6 44.8 38.4 25.6 12.8 57.6 12.8 83.2 6.4 12.8-6.4 25.6-12.8 32-19.2 12.8 12.8 25.6 25.6 44.8 32 70.4 19.2 128-44.8 147.2-83.2l64-108.8c0-6.4 83.2-134.4 83.2-300.8 0-115.2 6.4-140.8 6.4-147.2v-12.8c0-12.8-6.4-19.2-12.8-25.6l-326.4-179.2zM179.2 358.4c-19.2-6.4-25.6-25.6-25.6-44.8 0-12.8 6.4-19.2 19.2-25.6 44.8-25.6 89.6-64 134.4-96 51.2-38.4 108.8-83.2 172.8-121.6 83.2-51.2 121.6-76.8 147.2-89.6l288 166.4v134.4c0 153.6-70.4 268.8-70.4 268.8l-64 115.2s-32 57.6-70.4 44.8c-6.4 0-6.4 0-6.4-6.4-6.4 0-19.2-12.8-6.4-44.8-12.8-12.8-12.8-19.2-12.8-19.2 6.4-12.8 0-32-19.2-38.4-12.8-6.4-32 0-38.4 19.2 0 0-6.4 6.4-6.4 19.2-12.8 25.6-32 44.8-44.8 51.2-6.4 0-19.2 6.4-32 0-19.2-12.8-32-25.6-19.2-51.2l19.2-25.6c6.4-19.2 0-38.4-12.8-44.8-12.8-12.8-32-6.4-38.4 6.4 0 0-12.8 12.8-19.2 32l-12.8 19.2s0 6.4-6.4 6.4c0 0-6.4 25.6-25.6 32-12.8 6.4-32 0-44.8-12.8-12.8-6.4-25.6-19.2-12.8-51.2l32-51.2c6.4-19.2 6.4-38.4-6.4-44.8-12.8-12.8-32-12.8-44.8 0 0 0-25.6 25.6-38.4 64l-115.2 192c-6.4 12.8-19.2 32-38.4 38.4-6.4 0-19.2 0-25.6-6.4-38.4-19.2-12.8-64-12.8-70.4l192-339.2c6.4-12.8 6.4-32-6.4-38.4-12.8-6.4-25.6-6.4-38.4 0-38.4 32-76.8 19.2-89.6 12.8z"  horiz-adv-x="1024" />

    
    <glyph glyph-name="shanchu" unicode="&#58907;" d="M198.656 11.264c0-65.536 52.736-120.832 117.76-120.832h392.704c65.024 0 117.76 55.808 117.76 120.832l78.848 634.88h-785.92l78.848-634.88z m437.76 512h76.8v-509.44h-76.8v509.44z m-169.984 0h93.184v-509.44h-93.184v509.44z m-154.624 0h76.8v-509.44h-76.8v509.44zM885.76 800.768h-255.488s-17.92 76.8-39.424 76.8h-156.672c-21.504 0-39.424-76.8-39.424-76.8h-255.488c-32.256 0-58.88-28.672-58.88-60.928v-61.952h864.256v61.952c0.512 32.256-26.624 60.928-58.88 60.928z"  horiz-adv-x="1024" />

    
    <glyph glyph-name="zixun" unicode="&#59024;" d="M938.531 22.313 339.873 22.313 170.852-146.453 170.852 22.313 85.489 22.313c-47.103 0-85.276 38.108-85.276 85.129L0.213 661.293c0 47.02 38.173 85.16 85.276 85.16l853.042 0c47.083 0 85.256-38.14 85.256-85.16l0-553.851C1023.787 60.422 985.614 22.313 938.531 22.313L938.531 22.313zM981.17 661.293c0 23.479-19.14 42.564-42.639 42.564L85.489 703.857c-23.518 0-42.637-19.086-42.637-42.564l0-553.851c0-23.436 19.118-42.555 42.637-42.555l85.363 0 42.637 0 0-42.574 0-65.968 96.229 96.061 12.482 12.481 17.672 0L938.53 64.887c23.499 0 42.639 19.119 42.639 42.555L981.17 661.293 981.17 661.293zM511.999 341.643c-23.541 0-42.615 19.088-42.615 42.566 0 23.518 19.074 42.605 42.615 42.605 23.544 0 42.639-19.088 42.639-42.605C554.638 360.73 535.543 341.643 511.999 341.643L511.999 341.643zM341.425 341.643c-23.54 0-42.639 19.088-42.639 42.566 0 23.518 19.1 42.605 42.639 42.605 23.541 0 42.639-19.088 42.639-42.605C384.063 360.73 364.965 341.643 341.425 341.643L341.425 341.643zM678.579 341.643c-23.566 0-42.642 19.088-42.642 42.566 0 23.518 19.074 42.605 42.642 42.605 23.539 0 42.614-19.088 42.614-42.605C721.194 360.73 702.118 341.643 678.579 341.643L678.579 341.643z"  horiz-adv-x="1024" />

    


  </font>
</defs>
</svg>
